<svg xmlns="http://www.w3.org/2000/svg" xmlns:xlink="http://www.w3.org/1999/xlink" contentStyleType="text/css" data-diagram-type="SEQUENCE" height="664px" preserveAspectRatio="none" style="width:1013px;height:664px;background:#FFFFFF;" version="1.1" viewBox="0 0 1013 664" width="1013px" zoomAndPan="magnify"><?plantuml 1.2026.6?><defs/><g><g class="title" data-source-line="1"><text fill="#000000" font-family="sans-serif" font-size="14" font-weight="700" lengthAdjust="spacing" textLength="452.1563" x="276.9602" y="27.9951">RF04 + RF05 - Processar evento e consolidar saldo diario</text></g><g><title>Worker Consolidacao</title><rect fill="#FFFFFF" height="362.2656" style="stroke:#181818;stroke-width:1;" width="10" x="341.8862" y="150.8594"/></g><rect fill="none" height="283" style="stroke:#000000;stroke-width:1.5;" width="987.0767" x="10" y="223.125"/><rect fill="none" height="59.2656" style="stroke:#000000;stroke-width:1.5;" width="350.7729" x="10" y="520.125"/><g class="participant-lifeline" data-entity-uid="part1" data-qualified-name="SQS" data-source-line="3" id="part1-lifeline"><g><title>SQS lancamento-criado</title><rect fill="#000000" fill-opacity="0.00000" height="491.7969" width="8" x="108.2329" y="104.5938"/><line style="stroke:#181818;stroke-width:0.5;stroke-dasharray:5,5;" x1="112" x2="112" y1="104.5938" y2="596.3906"/></g></g><g class="participant-lifeline" data-entity-uid="part2" data-qualified-name="Worker" data-source-line="4" id="part2-lifeline"><g><title>Worker Consolidacao</title><rect fill="#000000" fill-opacity="0.00000" height="491.7969" width="8" x="342.8862" y="104.5938"/><line style="stroke:#181818;stroke-width:0.5;stroke-dasharray:5,5;" x1="346.7607" x2="346.7607" y1="104.5938" y2="596.3906"/></g></g><g class="participant-lifeline" data-entity-uid="part3" data-qualified-name="DB" data-source-line="5" id="part3-lifeline"><g><title>Aurora . PostgreSQL</title><rect fill="#000000" fill-opacity="0.00000" height="491.7969" width="8" x="628.1665" y="104.5938"/><line style="stroke:#181818;stroke-width:0.5;stroke-dasharray:5,5;" x1="631.4282" x2="631.4282" y1="104.5938" y2="596.3906"/></g></g><g class="participant-lifeline" data-entity-uid="part4" data-qualified-name="Cache" data-source-line="6" id="part4-lifeline"><g><title>Redis . saldos_diarios</title><rect fill="#000000" fill-opacity="0.00000" height="491.7969" width="8" x="790.1035" y="104.5938"/><line style="stroke:#181818;stroke-width:0.5;stroke-dasharray:5,5;" x1="793.9048" x2="793.9048" y1="104.5938" y2="596.3906"/></g></g><g class="participant participant-head" data-entity-uid="part1" data-qualified-name="SQS" data-source-line="3" id="part1-head"><path d="M25,78.2969 L199.4658,78.2969 C204.4658,78.2969 204.4658,91.4453 204.4658,91.4453 C204.4658,91.4453 204.4658,104.5938 199.4658,104.5938 L25,104.5938 C20,104.5938 20,91.4453 20,91.4453 C20,91.4453 20,78.2969 25,78.2969" fill="#E2E2F0" style="stroke:#181818;stroke-width:0.5;"/><path d="M199.4658,78.2969 C194.4658,78.2969 194.4658,91.4453 194.4658,91.4453 C194.4658,104.5938 199.4658,104.5938 199.4658,104.5938" fill="none" style="stroke:#181818;stroke-width:0.5;"/><text fill="#000000" font-family="sans-serif" font-size="14" lengthAdjust="spacing" textLength="164.4658" x="25" y="96.292">SQS lancamento-criado</text></g><g class="participant participant-tail" data-entity-uid="part1" data-qualified-name="SQS" data-source-line="3" id="part1-tail"><path d="M25,595.3906 L199.4658,595.3906 C204.4658,595.3906 204.4658,608.5391 204.4658,608.5391 C204.4658,608.5391 204.4658,621.6875 199.4658,621.6875 L25,621.6875 C20,621.6875 20,608.5391 20,608.5391 C20,608.5391 20,595.3906 25,595.3906" fill="#E2E2F0" style="stroke:#181818;stroke-width:0.5;"/><path d="M199.4658,595.3906 C194.4658,595.3906 194.4658,608.5391 194.4658,608.5391 C194.4658,621.6875 199.4658,621.6875 199.4658,621.6875" fill="none" style="stroke:#181818;stroke-width:0.5;"/><text fill="#000000" font-family="sans-serif" font-size="14" lengthAdjust="spacing" textLength="164.4658" x="25" y="613.3857">SQS lancamento-criado</text></g><g class="participant participant-head" data-entity-uid="part2" data-qualified-name="Worker" data-source-line="4" id="part2-head"><rect fill="#E2E2F0" height="30.2969" rx="2.5" ry="2.5" style="stroke:#181818;stroke-width:0.5;" width="162.251" x="265.7607" y="73.2969"/><text fill="#000000" font-family="sans-serif" font-size="14" lengthAdjust="spacing" textLength="148.251" x="272.7607" y="93.292">Worker Consolidacao</text></g><g class="participant participant-tail" data-entity-uid="part2" data-qualified-name="Worker" data-source-line="4" id="part2-tail"><rect fill="#E2E2F0" height="30.2969" rx="2.5" ry="2.5" style="stroke:#181818;stroke-width:0.5;" width="162.251" x="265.7607" y="595.3906"/><text fill="#000000" font-family="sans-serif" font-size="14" lengthAdjust="spacing" textLength="148.251" x="272.7607" y="615.3857">Worker Consolidacao</text></g><g class="participant participant-head" data-entity-uid="part3" data-qualified-name="DB" data-source-line="5" id="part3-head"><text fill="#000000" font-family="sans-serif" font-size="14" lengthAdjust="spacing" textLength="141.4766" x="558.4282" y="101.292">Aurora / PostgreSQL</text><path d="M614.1665,52.2969 C614.1665,42.2969 632.1665,42.2969 632.1665,42.2969 C632.1665,42.2969 650.1665,42.2969 650.1665,52.2969 L650.1665,78.2969 C650.1665,88.2969 632.1665,88.2969 632.1665,88.2969 C632.1665,88.2969 614.1665,88.2969 614.1665,78.2969 L614.1665,52.2969" fill="#E2E2F0" style="stroke:#181818;stroke-width:0.5;"/><path d="M614.1665,52.2969 C614.1665,62.2969 632.1665,62.2969 632.1665,62.2969 C632.1665,62.2969 650.1665,62.2969 650.1665,52.2969" fill="none" style="stroke:#181818;stroke-width:0.5;"/></g><g class="participant participant-tail" data-entity-uid="part3" data-qualified-name="DB" data-source-line="5" id="part3-tail"><text fill="#000000" font-family="sans-serif" font-size="14" lengthAdjust="spacing" textLength="141.4766" x="558.4282" y="608.3857">Aurora / PostgreSQL</text><path d="M614.1665,621.6875 C614.1665,611.6875 632.1665,611.6875 632.1665,611.6875 C632.1665,611.6875 650.1665,611.6875 650.1665,621.6875 L650.1665,647.6875 C650.1665,657.6875 632.1665,657.6875 632.1665,657.6875 C632.1665,657.6875 614.1665,657.6875 614.1665,647.6875 L614.1665,621.6875" fill="#E2E2F0" style="stroke:#181818;stroke-width:0.5;"/><path d="M614.1665,621.6875 C614.1665,631.6875 632.1665,631.6875 632.1665,631.6875 C632.1665,631.6875 650.1665,631.6875 650.1665,621.6875" fill="none" style="stroke:#181818;stroke-width:0.5;"/></g><g class="participant participant-head" data-entity-uid="part4" data-qualified-name="Cache" data-source-line="6" id="part4-head"><text fill="#000000" font-family="sans-serif" font-size="14" lengthAdjust="spacing" textLength="150.3975" x="715.9048" y="101.292">Redis / saldos_diarios</text><path d="M776.1035,52.2969 C776.1035,42.2969 794.1035,42.2969 794.1035,42.2969 C794.1035,42.2969 812.1035,42.2969 812.1035,52.2969 L812.1035,78.2969 C812.1035,88.2969 794.1035,88.2969 794.1035,88.2969 C794.1035,88.2969 776.1035,88.2969 776.1035,78.2969 L776.1035,52.2969" fill="#E2E2F0" style="stroke:#181818;stroke-width:0.5;"/><path d="M776.1035,52.2969 C776.1035,62.2969 794.1035,62.2969 794.1035,62.2969 C794.1035,62.2969 812.1035,62.2969 812.1035,52.2969" fill="none" style="stroke:#181818;stroke-width:0.5;"/></g><g class="participant participant-tail" data-entity-uid="part4" data-qualified-name="Cache" data-source-line="6" id="part4-tail"><text fill="#000000" font-family="sans-serif" font-size="14" lengthAdjust="spacing" textLength="150.3975" x="715.9048" y="608.3857">Redis / saldos_diarios</text><path d="M776.1035,621.6875 C776.1035,611.6875 794.1035,611.6875 794.1035,611.6875 C794.1035,611.6875 812.1035,611.6875 812.1035,621.6875 L812.1035,647.6875 C812.1035,657.6875 794.1035,657.6875 794.1035,657.6875 C794.1035,657.6875 776.1035,657.6875 776.1035,647.6875 L776.1035,621.6875" fill="#E2E2F0" style="stroke:#181818;stroke-width:0.5;"/><path d="M776.1035,621.6875 C776.1035,631.6875 794.1035,631.6875 794.1035,631.6875 C794.1035,631.6875 812.1035,631.6875 812.1035,621.6875" fill="none" style="stroke:#181818;stroke-width:0.5;"/></g><g><title>Worker Consolidacao</title><rect fill="#FFFFFF" height="362.2656" style="stroke:#181818;stroke-width:1;" width="10" x="341.8862" y="150.8594"/></g><g class="message" data-entity-1="part1" data-entity-2="part2" data-source-line="8" id="msg1"><polygon fill="#181818" points="329.8862,146.8594,339.8862,150.8594,329.8862,154.8594,333.8862,150.8594" style="stroke:#181818;stroke-width:1;stroke-linejoin:miter;stroke-miterlimit:10;"/><line style="stroke:#181818;stroke-width:1;" x1="112.2329" x2="335.8862" y1="150.8594" y2="150.8594"/><text fill="#000000" font-family="sans-serif" font-size="13" lengthAdjust="spacing" textLength="159.9609" x="119.2329" y="130.6606">LancamentoCriadoEvent</text><text fill="#000000" font-family="sans-serif" font-size="13" lengthAdjust="spacing" textLength="210.6533" x="119.2329" y="145.7935">(LancamentoId, Dia, Valor, Tipo)</text></g><g class="message" data-entity-1="part2" data-entity-2="part2" data-source-line="11" id="msg2"><line style="stroke:#181818;stroke-width:1;" x1="351.8862" x2="393.8862" y1="195.125" y2="195.125"/><line style="stroke:#181818;stroke-width:1;" x1="393.8862" x2="393.8862" y1="195.125" y2="208.125"/><line style="stroke:#181818;stroke-width:1;" x1="352.8862" x2="393.8862" y1="208.125" y2="208.125"/><polygon fill="#181818" points="362.8862,204.125,352.8862,208.125,362.8862,212.125,358.8862,208.125" style="stroke:#181818;stroke-width:1;stroke-linejoin:miter;stroke-miterlimit:10;"/><text fill="#000000" font-family="sans-serif" font-size="13" lengthAdjust="spacing" textLength="103.8857" x="358.8862" y="174.9263">Log estruturado</text><text fill="#000000" font-family="sans-serif" font-size="13" lengthAdjust="spacing" textLength="183.2188" x="358.8862" y="190.0591">correlationId, LancamentoId</text></g><path d="M10,223.125 L74.4429,223.125 L74.4429,230.2578 L64.4429,240.2578 L10,240.2578 L10,223.125" fill="#EEEEEE" style="stroke:#000000;stroke-width:1.5;"/><rect fill="none" height="283" style="stroke:#000000;stroke-width:1.5;" width="987.0767" x="10" y="223.125"/><text fill="#000000" font-family="sans-serif" font-size="13" font-weight="700" lengthAdjust="spacing" textLength="19.4429" x="25" y="236.1919">alt</text><text fill="#000000" font-family="sans-serif" font-size="11" font-weight="700" lengthAdjust="spacing" textLength="113.5342" x="89.4429" y="235.3354">[Falha transitoria]</text><g class="message" data-entity-1="part2" data-entity-2="part2" data-source-line="14" id="msg3"><line style="stroke:#181818;stroke-width:1;" x1="351.8862" x2="393.8862" y1="261.3906" y2="261.3906"/><line style="stroke:#181818;stroke-width:1;" x1="393.8862" x2="393.8862" y1="261.3906" y2="274.3906"/><line style="stroke:#181818;stroke-width:1;" x1="352.8862" x2="393.8862" y1="274.3906" y2="274.3906"/><polygon fill="#181818" points="362.8862,270.3906,352.8862,274.3906,362.8862,278.3906,358.8862,274.3906" style="stroke:#181818;stroke-width:1;stroke-linejoin:miter;stroke-miterlimit:10;"/><text fill="#000000" font-family="sans-serif" font-size="13" lengthAdjust="spacing" textLength="172.4341" x="358.8862" y="256.3247">Retry MassTransit (ate 3x)</text></g><path d="M552.4341,248.7578 L552.4341,273.7578 L620.4341,273.7578 L620.4341,258.7578 L610.4341,248.7578 L552.4341,248.7578" fill="#FEFFDD" style="stroke:#181818;stroke-width:0.5;"/><path d="M610.4341,248.7578 L610.4341,258.7578 L620.4341,258.7578 L610.4341,248.7578" fill="#FEFFDD" style="stroke:#181818;stroke-width:0.5;"/><text fill="#000000" font-family="sans-serif" font-size="13" lengthAdjust="spacing" textLength="47.7026" x="558.4341" y="265.8247">RN04.2</text><line style="stroke:#000000;stroke-width:1;stroke-dasharray:2,2;" x1="10" x2="997.0767" y1="283.3906" y2="283.3906"/><text fill="#000000" font-family="sans-serif" font-size="11" font-weight="700" lengthAdjust="spacing" textLength="105.166" x="15" y="293.6011">[Processamento]</text><g class="message" data-entity-1="part2" data-entity-2="part3" data-source-line="17" id="msg5"><polygon fill="#181818" points="620.1665,314.3281,630.1665,318.3281,620.1665,322.3281,624.1665,318.3281" style="stroke:#181818;stroke-width:1;stroke-linejoin:miter;stroke-miterlimit:10;"/><line style="stroke:#181818;stroke-width:1;" x1="351.8862" x2="626.1665" y1="318.3281" y2="318.3281"/><text fill="#000000" font-family="sans-serif" font-size="13" lengthAdjust="spacing" textLength="256.2803" x="358.8862" y="313.2622">SELECT lancamentos WHERE dia = :dia</text></g><g class="message" data-entity-1="part3" data-entity-2="part2" data-source-line="18" id="msg6"><polygon fill="#181818" points="362.8862,343.4609,352.8862,347.4609,362.8862,351.4609,358.8862,347.4609" style="stroke:#181818;stroke-width:1;stroke-linejoin:miter;stroke-miterlimit:10;"/><line style="stroke:#181818;stroke-width:1;stroke-dasharray:2,2;" x1="356.8862" x2="631.1665" y1="347.4609" y2="347.4609"/><text fill="#000000" font-family="sans-serif" font-size="13" lengthAdjust="spacing" textLength="138.8613" x="368.8862" y="342.395">Lista de lancamentos</text></g><g class="message" data-entity-1="part2" data-entity-2="part2" data-source-line="19" id="msg7"><line style="stroke:#181818;stroke-width:1;" x1="351.8862" x2="393.8862" y1="376.5938" y2="376.5938"/><line style="stroke:#181818;stroke-width:1;" x1="393.8862" x2="393.8862" y1="376.5938" y2="389.5938"/><line style="stroke:#181818;stroke-width:1;" x1="352.8862" x2="393.8862" y1="389.5938" y2="389.5938"/><polygon fill="#181818" points="362.8862,385.5938,352.8862,389.5938,362.8862,393.5938,358.8862,389.5938" style="stroke:#181818;stroke-width:1;stroke-linejoin:miter;stroke-miterlimit:10;"/><text fill="#000000" font-family="sans-serif" font-size="13" lengthAdjust="spacing" textLength="181.8984" x="358.8862" y="371.5278">saldo = SUM(ValorEfetivo())</text></g><path d="M561.8984,363.9609 L561.8984,388.9609 L810.8984,388.9609 L810.8984,373.9609 L800.8984,363.9609 L561.8984,363.9609" fill="#FEFFDD" style="stroke:#181818;stroke-width:0.5;"/><path d="M800.8984,363.9609 L800.8984,373.9609 L810.8984,373.9609 L800.8984,363.9609" fill="#FEFFDD" style="stroke:#181818;stroke-width:0.5;"/><text fill="#000000" font-family="sans-serif" font-size="13" lengthAdjust="spacing" textLength="228.7886" x="567.8984" y="381.0278">RN05.1 - recalculo completo do dia</text><g class="message" data-entity-1="part2" data-entity-2="part3" data-source-line="21" id="msg9"><polygon fill="#181818" points="620.1665,414.7266,630.1665,418.7266,620.1665,422.7266,624.1665,418.7266" style="stroke:#181818;stroke-width:1;stroke-linejoin:miter;stroke-miterlimit:10;"/><line style="stroke:#181818;stroke-width:1;" x1="351.8862" x2="626.1665" y1="418.7266" y2="418.7266"/><text fill="#000000" font-family="sans-serif" font-size="13" lengthAdjust="spacing" textLength="146.269" x="358.8862" y="413.6606">UPSERT saldos_diarios</text></g><g class="message" data-entity-1="part2" data-entity-2="part4" data-source-line="22" id="msg10"><polygon fill="#181818" points="782.1035,454.4258,792.1035,458.4258,782.1035,462.4258,786.1035,458.4258" style="stroke:#181818;stroke-width:1;stroke-linejoin:miter;stroke-miterlimit:10;"/><line style="stroke:#181818;stroke-width:1;" x1="351.8862" x2="788.1035" y1="458.4258" y2="458.4258"/><text fill="#000000" font-family="sans-serif" font-size="13" lengthAdjust="spacing" textLength="187.4653" x="358.8862" y="453.3599">SET saldo:{merchant}:{dia}</text></g><path d="M799,431.7266 L799,471.7266 L981,471.7266 L981,441.7266 L971,431.7266 L799,431.7266" fill="#FEFFDD" style="stroke:#181818;stroke-width:0.5;"/><path d="M971,431.7266 L971,441.7266 L981,441.7266 L971,431.7266" fill="#FEFFDD" style="stroke:#181818;stroke-width:0.5;"/><text fill="#000000" font-family="sans-serif" font-size="13" lengthAdjust="spacing" textLength="104.876" x="805" y="448.7935">Producao: Redis</text><text fill="#000000" font-family="sans-serif" font-size="13" lengthAdjust="spacing" textLength="161.9731" x="805" y="463.9263">POC: apenas PostgreSQL</text><g class="message" data-entity-1="part2" data-entity-2="part1" data-source-line="24" id="msg12"><polygon fill="#181818" points="123.2329,494.125,113.2329,498.125,123.2329,502.125,119.2329,498.125" style="stroke:#181818;stroke-width:1;stroke-linejoin:miter;stroke-miterlimit:10;"/><line style="stroke:#181818;stroke-width:1;stroke-dasharray:2,2;" x1="117.2329" x2="340.8862" y1="498.125" y2="498.125"/><text fill="#000000" font-family="sans-serif" font-size="13" lengthAdjust="spacing" textLength="103.1812" x="129.2329" y="493.0591">ACK mensagem</text></g><path d="M10,520.125 L74.4429,520.125 L74.4429,527.2578 L64.4429,537.2578 L10,537.2578 L10,520.125" fill="#EEEEEE" style="stroke:#000000;stroke-width:1.5;"/><rect fill="none" height="59.2656" style="stroke:#000000;stroke-width:1.5;" width="350.7729" x="10" y="520.125"/><text fill="#000000" font-family="sans-serif" font-size="13" font-weight="700" lengthAdjust="spacing" textLength="19.4429" x="25" y="533.1919">alt</text><text fill="#000000" font-family="sans-serif" font-size="11" font-weight="700" lengthAdjust="spacing" textLength="105.3701" x="89.4429" y="532.3354">[Esgotou retries]</text><g class="message" data-entity-1="part1" data-entity-2="part1" data-source-line="30" id="msg13"><line style="stroke:#181818;stroke-width:1;" x1="112.2329" x2="154.2329" y1="558.3906" y2="558.3906"/><line style="stroke:#181818;stroke-width:1;" x1="154.2329" x2="154.2329" y1="558.3906" y2="571.3906"/><line style="stroke:#181818;stroke-width:1;" x1="113.2329" x2="154.2329" y1="571.3906" y2="571.3906"/><polygon fill="#181818" points="123.2329,567.3906,113.2329,571.3906,123.2329,575.3906,119.2329,571.3906" style="stroke:#181818;stroke-width:1;stroke-linejoin:miter;stroke-miterlimit:10;"/><text fill="#000000" font-family="sans-serif" font-size="13" lengthAdjust="spacing" textLength="100.1406" x="119.2329" y="553.3247">Move para DLQ</text></g><path d="M231.1406,545.7578 L231.1406,570.7578 L345.1406,570.7578 L345.1406,555.7578 L335.1406,545.7578 L231.1406,545.7578" fill="#FEFFDD" style="stroke:#181818;stroke-width:0.5;"/><path d="M335.1406,545.7578 L335.1406,555.7578 L345.1406,555.7578 L335.1406,545.7578" fill="#FEFFDD" style="stroke:#181818;stroke-width:0.5;"/><text fill="#000000" font-family="sans-serif" font-size="13" lengthAdjust="spacing" textLength="93.3994" x="237.1406" y="562.8247">RN04.3 / RF06</text><?plantuml-src TLF1Rjf04BtlLumuWGffsYGzM4gbO1orAhI0INj1ggRhAQowxD3TDMeLvTyxjg5nWVfYUVtcpPjvRwE9bc1-VtaDBwhN3GnWwbbJ2EY1TkGY0u5c5zYQGiu2seAXCEWDA_Mpf9AWayzoiEWqRgg2WVO62-u01f0_Qei-6cssw29qlh3_GHxI0wF61jYSgm8ZViCWd7UbPu_m4gOSuifJFXlNmD6m1PfJOO9WQbNXQoChrBWKzPgKggGDtkxf4nZ_LPdM8hDgnANhFf-_B_emCjY7psZPzs5XjjnJgAFPOQI3JhMVeqtDAw0GVHbBBynBfzbxiXWDkugqtK8fj17kqQuHeaSNJ6JHeq2UK-OvHVyR9XZ2ei52jv9ozQjN5pYM3szMwoZGZvVN5wyLMTdEmSYwvn7rQ9X0despTD4oJbnubyspobsuXQJO2neDOT2UquI8K52xy3_2cx3SGlumwTRhpBwJx96xlRFARovUIVuyQRIwj2onssmjIGARn9qPuM6QP_F5aVr7k3e8rRHxNFAu8Q_NaiQdv55AdawaoEAAKe9PRLxojNJJJsa2k2KdkNgEupzzf954BO6xz0F8JWAkQAF8YTC5dOIdCZyBAuvSohZH6sf4xyDQ4qruHo1N1s4qdftt-KgIBvVsJTtd3m00?></g></svg>