<svg xmlns="http://www.w3.org/2000/svg" xmlns:xlink="http://www.w3.org/1999/xlink" contentStyleType="text/css" data-diagram-type="SEQUENCE" height="729px" preserveAspectRatio="none" style="width:827px;height:729px;background:#FFFFFF;" version="1.1" viewBox="0 0 827 729" width="827px" zoomAndPan="magnify"><?plantuml 1.2026.6?><defs/><g><g class="title" data-source-line="1"><text fill="#000000" font-family="sans-serif" font-size="14" font-weight="700" lengthAdjust="spacing" textLength="463.6133" x="178.3293" y="27.9951">Fluxo completo - Registrar lancamento ate consultar saldo</text></g><g class="participant-lifeline" data-entity-uid="part1" data-qualified-name="Comerciante" data-source-line="3" id="part1-lifeline"><g><title>Comerciante</title><rect fill="#000000" fill-opacity="0.00000" height="528.125" width="8" x="48.7446" y="118.5938"/><line style="stroke:#181818;stroke-width:0.5;stroke-dasharray:5,5;" x1="52" x2="52" y1="118.5938" y2="646.7188"/></g></g><g class="participant-lifeline" data-entity-uid="part2" data-qualified-name="Front" data-source-line="4" id="part2-lifeline"><g><title>Front</title><rect fill="#000000" fill-opacity="0.00000" height="528.125" width="8" x="190.627" y="118.5938"/><line style="stroke:#181818;stroke-width:0.5;stroke-dasharray:5,5;" x1="194.2588" x2="194.2588" y1="118.5938" y2="646.7188"/></g></g><g class="participant-lifeline" data-entity-uid="part3" data-qualified-name="ApiLanc" data-source-line="5" id="part3-lifeline"><g><title>API Lancamentos</title><rect fill="#000000" fill-opacity="0.00000" height="528.125" width="8" x="365.2695" y="118.5938"/><line style="stroke:#181818;stroke-width:0.5;stroke-dasharray:5,5;" x1="368.9697" x2="368.9697" y1="118.5938" y2="646.7188"/></g></g><g class="participant-lifeline" data-entity-uid="part4" data-qualified-name="ApiRel" data-source-line="6" id="part4-lifeline"><g><title>API Relatorios</title><rect fill="#000000" fill-opacity="0.00000" height="528.125" width="8" x="498.0532" y="118.5938"/><line style="stroke:#181818;stroke-width:0.5;stroke-dasharray:5,5;" x1="501.5693" x2="501.5693" y1="118.5938" y2="646.7188"/></g></g><g class="participant-lifeline" data-entity-uid="part5" data-qualified-name="DB" data-source-line="7" id="part5-lifeline"><g><title>PostgreSQL</title><rect fill="#000000" fill-opacity="0.00000" height="528.125" width="8" x="609.6826" y="118.5938"/><line style="stroke:#181818;stroke-width:0.5;stroke-dasharray:5,5;" x1="613.3062" x2="613.3062" y1="118.5938" y2="646.7188"/></g></g><g class="participant-lifeline" data-entity-uid="part6" data-qualified-name="SQS" data-source-line="8" id="part6-lifeline"><g><title>SQS</title><rect fill="#000000" fill-opacity="0.00000" height="528.125" width="8" x="687.4556" y="118.5938"/><line style="stroke:#181818;stroke-width:0.5;stroke-dasharray:5,5;" x1="691.0591" x2="691.0591" y1="118.5938" y2="646.7188"/></g></g><g class="participant-lifeline" data-entity-uid="part7" data-qualified-name="Worker" data-source-line="9" id="part7-lifeline"><g><title>Worker</title><rect fill="#000000" fill-opacity="0.00000" height="528.125" width="8" x="779.9517" y="118.5938"/><line style="stroke:#181818;stroke-width:0.5;stroke-dasharray:5,5;" x1="783.6313" x2="783.6313" y1="118.5938" y2="646.7188"/></g></g><g class="participant participant-head" data-entity-uid="part1" data-qualified-name="Comerciante" data-source-line="3" id="part1-head"><text fill="#000000" font-family="sans-serif" font-size="14" lengthAdjust="spacing" textLength="89.4893" x="5" y="115.292">Comerciante</text><ellipse cx="52.7446" cy="50.7969" fill="#E2E2F0" rx="8" ry="8" style="stroke:#181818;stroke-width:0.5;"/><path d="M52.7446,58.7969 L52.7446,85.7969 M39.7446,66.7969 L65.7446,66.7969 M52.7446,85.7969 L39.7446,100.7969 M52.7446,85.7969 L65.7446,100.7969" fill="none" style="stroke:#181818;stroke-width:0.5;"/></g><g class="participant participant-tail" data-entity-uid="part1" data-qualified-name="Comerciante" data-source-line="3" id="part1-tail"><text fill="#000000" font-family="sans-serif" font-size="14" lengthAdjust="spacing" textLength="89.4893" x="5" y="658.7139">Comerciante</text><ellipse cx="52.7446" cy="670.5156" fill="#E2E2F0" rx="8" ry="8" style="stroke:#181818;stroke-width:0.5;"/><path d="M52.7446,678.5156 L52.7446,705.5156 M39.7446,686.5156 L65.7446,686.5156 M52.7446,705.5156 L39.7446,720.5156 M52.7446,705.5156 L65.7446,720.5156" fill="none" style="stroke:#181818;stroke-width:0.5;"/></g><g class="participant participant-head" data-entity-uid="part2" data-qualified-name="Front" data-source-line="4" id="part2-head"><rect fill="#E2E2F0" height="30.2969" rx="2.5" ry="2.5" style="stroke:#181818;stroke-width:0.5;" width="50.7363" x="169.2588" y="87.2969"/><text fill="#000000" font-family="sans-serif" font-size="14" lengthAdjust="spacing" textLength="36.7363" x="176.2588" y="107.292">Front</text></g><g class="participant participant-tail" data-entity-uid="part2" data-qualified-name="Front" data-source-line="4" id="part2-tail"><rect fill="#E2E2F0" height="30.2969" rx="2.5" ry="2.5" style="stroke:#181818;stroke-width:0.5;" width="50.7363" x="169.2588" y="645.7188"/><text fill="#000000" font-family="sans-serif" font-size="14" lengthAdjust="spacing" textLength="36.7363" x="176.2588" y="665.7139">Front</text></g><g class="participant participant-head" data-entity-uid="part3" data-qualified-name="ApiLanc" data-source-line="5" id="part3-head"><rect fill="#E2E2F0" height="30.2969" rx="2.5" ry="2.5" style="stroke:#181818;stroke-width:0.5;" width="134.5996" x="301.9697" y="87.2969"/><text fill="#000000" font-family="sans-serif" font-size="14" lengthAdjust="spacing" textLength="120.5996" x="308.9697" y="107.292">API Lancamentos</text></g><g class="participant participant-tail" data-entity-uid="part3" data-qualified-name="ApiLanc" data-source-line="5" id="part3-tail"><rect fill="#E2E2F0" height="30.2969" rx="2.5" ry="2.5" style="stroke:#181818;stroke-width:0.5;" width="134.5996" x="301.9697" y="645.7188"/><text fill="#000000" font-family="sans-serif" font-size="14" lengthAdjust="spacing" textLength="120.5996" x="308.9697" y="665.7139">API Lancamentos</text></g><g class="participant participant-head" data-entity-uid="part4" data-qualified-name="ApiRel" data-source-line="6" id="part4-head"><rect fill="#E2E2F0" height="30.2969" rx="2.5" ry="2.5" style="stroke:#181818;stroke-width:0.5;" width="110.9678" x="446.5693" y="87.2969"/><text fill="#000000" font-family="sans-serif" font-size="14" lengthAdjust="spacing" textLength="96.9678" x="453.5693" y="107.292">API Relatorios</text></g><g class="participant participant-tail" data-entity-uid="part4" data-qualified-name="ApiRel" data-source-line="6" id="part4-tail"><rect fill="#E2E2F0" height="30.2969" rx="2.5" ry="2.5" style="stroke:#181818;stroke-width:0.5;" width="110.9678" x="446.5693" y="645.7188"/><text fill="#000000" font-family="sans-serif" font-size="14" lengthAdjust="spacing" textLength="96.9678" x="453.5693" y="665.7139">API Relatorios</text></g><g class="participant participant-head" data-entity-uid="part5" data-qualified-name="DB" data-source-line="7" id="part5-head"><text fill="#000000" font-family="sans-serif" font-size="14" lengthAdjust="spacing" textLength="80.7529" x="570.3062" y="115.292">PostgreSQL</text><path d="M595.6826,66.2969 C595.6826,56.2969 613.6826,56.2969 613.6826,56.2969 C613.6826,56.2969 631.6826,56.2969 631.6826,66.2969 L631.6826,92.2969 C631.6826,102.2969 613.6826,102.2969 613.6826,102.2969 C613.6826,102.2969 595.6826,102.2969 595.6826,92.2969 L595.6826,66.2969" fill="#E2E2F0" style="stroke:#181818;stroke-width:0.5;"/><path d="M595.6826,66.2969 C595.6826,76.2969 613.6826,76.2969 613.6826,76.2969 C613.6826,76.2969 631.6826,76.2969 631.6826,66.2969" fill="none" style="stroke:#181818;stroke-width:0.5;"/></g><g class="participant participant-tail" data-entity-uid="part5" data-qualified-name="DB" data-source-line="7" id="part5-tail"><text fill="#000000" font-family="sans-serif" font-size="14" lengthAdjust="spacing" textLength="80.7529" x="570.3062" y="658.7139">PostgreSQL</text><path d="M595.6826,672.0156 C595.6826,662.0156 613.6826,662.0156 613.6826,662.0156 C613.6826,662.0156 631.6826,662.0156 631.6826,672.0156 L631.6826,698.0156 C631.6826,708.0156 613.6826,708.0156 613.6826,708.0156 C613.6826,708.0156 595.6826,708.0156 595.6826,698.0156 L595.6826,672.0156" fill="#E2E2F0" style="stroke:#181818;stroke-width:0.5;"/><path d="M595.6826,672.0156 C595.6826,682.0156 613.6826,682.0156 613.6826,682.0156 C613.6826,682.0156 631.6826,682.0156 631.6826,672.0156" fill="none" style="stroke:#181818;stroke-width:0.5;"/></g><g class="participant participant-head" data-entity-uid="part6" data-qualified-name="SQS" data-source-line="8" id="part6-head"><path d="M672.0591,92.2969 L710.8521,92.2969 C715.8521,92.2969 715.8521,105.4453 715.8521,105.4453 C715.8521,105.4453 715.8521,118.5938 710.8521,118.5938 L672.0591,118.5938 C667.0591,118.5938 667.0591,105.4453 667.0591,105.4453 C667.0591,105.4453 667.0591,92.2969 672.0591,92.2969" fill="#E2E2F0" style="stroke:#181818;stroke-width:0.5;"/><path d="M710.8521,92.2969 C705.8521,92.2969 705.8521,105.4453 705.8521,105.4453 C705.8521,118.5938 710.8521,118.5938 710.8521,118.5938" fill="none" style="stroke:#181818;stroke-width:0.5;"/><text fill="#000000" font-family="sans-serif" font-size="14" lengthAdjust="spacing" textLength="28.793" x="672.0591" y="110.292">SQS</text></g><g class="participant participant-tail" data-entity-uid="part6" data-qualified-name="SQS" data-source-line="8" id="part6-tail"><path d="M672.0591,645.7188 L710.8521,645.7188 C715.8521,645.7188 715.8521,658.8672 715.8521,658.8672 C715.8521,658.8672 715.8521,672.0156 710.8521,672.0156 L672.0591,672.0156 C667.0591,672.0156 667.0591,658.8672 667.0591,658.8672 C667.0591,658.8672 667.0591,645.7188 672.0591,645.7188" fill="#E2E2F0" style="stroke:#181818;stroke-width:0.5;"/><path d="M710.8521,645.7188 C705.8521,645.7188 705.8521,658.8672 705.8521,658.8672 C705.8521,672.0156 710.8521,672.0156 710.8521,672.0156" fill="none" style="stroke:#181818;stroke-width:0.5;"/><text fill="#000000" font-family="sans-serif" font-size="14" lengthAdjust="spacing" textLength="28.793" x="672.0591" y="663.7139">SQS</text></g><g class="participant participant-head" data-entity-uid="part7" data-qualified-name="Worker" data-source-line="9" id="part7-head"><rect fill="#E2E2F0" height="30.2969" rx="2.5" ry="2.5" style="stroke:#181818;stroke-width:0.5;" width="64.6406" x="751.6313" y="87.2969"/><text fill="#000000" font-family="sans-serif" font-size="14" lengthAdjust="spacing" textLength="50.6406" x="758.6313" y="107.292">Worker</text></g><g class="participant participant-tail" data-entity-uid="part7" data-qualified-name="Worker" data-source-line="9" id="part7-tail"><rect fill="#E2E2F0" height="30.2969" rx="2.5" ry="2.5" style="stroke:#181818;stroke-width:0.5;" width="64.6406" x="751.6313" y="645.7188"/><text fill="#000000" font-family="sans-serif" font-size="14" lengthAdjust="spacing" textLength="50.6406" x="758.6313" y="665.7139">Worker</text></g><rect fill="#EEEEEE" height="3" style="stroke:#EEEEEE;stroke-width:1;" width="821.272" x="0" y="149.1602"/><line style="stroke:#000000;stroke-width:1;" x1="0" x2="821.272" y1="149.1602" y2="149.1602"/><line style="stroke:#000000;stroke-width:1;" x1="0" x2="821.272" y1="152.1602" y2="152.1602"/><rect fill="#EEEEEE" height="23.1328" style="stroke:#000000;stroke-width:2;" width="150.2271" x="335.5225" y="138.5938"/><text fill="#000000" font-family="sans-serif" font-size="13" font-weight="700" lengthAdjust="spacing" textLength="131.7012" x="341.5225" y="154.6606">Write path (RF01)</text><g class="message" data-entity-1="part1" data-entity-2="part2" data-source-line="12" id="msg1"><polygon fill="#181818" points="182.627,188.8594,192.627,192.8594,182.627,196.8594,186.627,192.8594" style="stroke:#181818;stroke-width:1;stroke-linejoin:miter;stroke-miterlimit:10;"/><line style="stroke:#181818;stroke-width:1;" x1="52.7446" x2="188.627" y1="192.8594" y2="192.8594"/><text fill="#000000" font-family="sans-serif" font-size="13" lengthAdjust="spacing" textLength="114.3403" x="59.7446" y="187.7935">Novo lancamento</text></g><g class="message" data-entity-1="part2" data-entity-2="part3" data-source-line="13" id="msg2"><polygon fill="#181818" points="357.2695,217.9922,367.2695,221.9922,357.2695,225.9922,361.2695,221.9922" style="stroke:#181818;stroke-width:1;stroke-linejoin:miter;stroke-miterlimit:10;"/><line style="stroke:#181818;stroke-width:1;" x1="194.627" x2="363.2695" y1="221.9922" y2="221.9922"/><text fill="#000000" font-family="sans-serif" font-size="13" lengthAdjust="spacing" textLength="150.6426" x="201.627" y="216.9263">POST /api/lancamentos</text></g><g class="message" data-entity-1="part3" data-entity-2="part5" data-source-line="14" id="msg3"><polygon fill="#181818" points="601.6826,247.125,611.6826,251.125,601.6826,255.125,605.6826,251.125" style="stroke:#181818;stroke-width:1;stroke-linejoin:miter;stroke-miterlimit:10;"/><line style="stroke:#181818;stroke-width:1;" x1="369.2695" x2="607.6826" y1="251.125" y2="251.125"/><text fill="#000000" font-family="sans-serif" font-size="13" lengthAdjust="spacing" textLength="116.5049" x="376.2695" y="246.0591">Salva lancamento</text></g><g class="message" data-entity-1="part3" data-entity-2="part6" data-source-line="15" id="msg4"><polygon fill="#181818" points="679.4556,276.2578,689.4556,280.2578,679.4556,284.2578,683.4556,280.2578" style="stroke:#181818;stroke-width:1;stroke-linejoin:miter;stroke-miterlimit:10;"/><line style="stroke:#181818;stroke-width:1;" x1="369.2695" x2="685.4556" y1="280.2578" y2="280.2578"/><text fill="#000000" font-family="sans-serif" font-size="13" lengthAdjust="spacing" textLength="122.7192" x="376.2695" y="275.1919">LancamentoCriado</text></g><g class="message" data-entity-1="part3" data-entity-2="part2" data-source-line="16" id="msg5"><polygon fill="#181818" points="205.627,305.3906,195.627,309.3906,205.627,313.3906,201.627,309.3906" style="stroke:#181818;stroke-width:1;stroke-linejoin:miter;stroke-miterlimit:10;"/><line style="stroke:#181818;stroke-width:1;stroke-dasharray:2,2;" x1="199.627" x2="368.2695" y1="309.3906" y2="309.3906"/><text fill="#000000" font-family="sans-serif" font-size="13" lengthAdjust="spacing" textLength="80.6787" x="211.627" y="304.3247">201 Created</text></g><rect fill="#EEEEEE" height="3" style="stroke:#EEEEEE;stroke-width:1;" width="821.272" x="0" y="337.957"/><line style="stroke:#000000;stroke-width:1;" x1="0" x2="821.272" y1="337.957" y2="337.957"/><line style="stroke:#000000;stroke-width:1;" x1="0" x2="821.272" y1="340.957" y2="340.957"/><rect fill="#EEEEEE" height="23.1328" style="stroke:#000000;stroke-width:2;" width="156.8794" x="332.1963" y="327.3906"/><text fill="#000000" font-family="sans-serif" font-size="13" font-weight="700" lengthAdjust="spacing" textLength="138.3535" x="338.1963" y="343.4575">Async (RF04/RF05)</text><g class="message" data-entity-1="part6" data-entity-2="part7" data-source-line="19" id="msg6"><polygon fill="#181818" points="771.9517,377.6563,781.9517,381.6563,771.9517,385.6563,775.9517,381.6563" style="stroke:#181818;stroke-width:1;stroke-linejoin:miter;stroke-miterlimit:10;"/><line style="stroke:#181818;stroke-width:1;" x1="691.4556" x2="777.9517" y1="381.6563" y2="381.6563"/><text fill="#000000" font-family="sans-serif" font-size="13" lengthAdjust="spacing" textLength="45.1953" x="698.4556" y="376.5903">Evento</text></g><g class="message" data-entity-1="part7" data-entity-2="part5" data-source-line="20" id="msg7"><polygon fill="#181818" points="624.6826,406.7891,614.6826,410.7891,624.6826,414.7891,620.6826,410.7891" style="stroke:#181818;stroke-width:1;stroke-linejoin:miter;stroke-miterlimit:10;"/><line style="stroke:#181818;stroke-width:1;" x1="618.6826" x2="782.9517" y1="410.7891" y2="410.7891"/><text fill="#000000" font-family="sans-serif" font-size="13" lengthAdjust="spacing" textLength="145.7104" x="630.6826" y="405.7231">Recalcula saldo do dia</text></g><g class="message" data-entity-1="part7" data-entity-2="part5" data-source-line="21" id="msg8"><polygon fill="#181818" points="624.6826,435.9219,614.6826,439.9219,624.6826,443.9219,620.6826,439.9219" style="stroke:#181818;stroke-width:1;stroke-linejoin:miter;stroke-miterlimit:10;"/><line style="stroke:#181818;stroke-width:1;" x1="618.6826" x2="782.9517" y1="439.9219" y2="439.9219"/><text fill="#000000" font-family="sans-serif" font-size="13" lengthAdjust="spacing" textLength="146.269" x="630.6826" y="434.856">UPSERT saldos_diarios</text></g><rect fill="#EEEEEE" height="3" style="stroke:#EEEEEE;stroke-width:1;" width="821.272" x="0" y="468.4883"/><line style="stroke:#000000;stroke-width:1;" x1="0" x2="821.272" y1="468.4883" y2="468.4883"/><line style="stroke:#000000;stroke-width:1;" x1="0" x2="821.272" y1="471.4883" y2="471.4883"/><rect fill="#EEEEEE" height="23.1328" style="stroke:#000000;stroke-width:2;" width="146.8945" x="337.1887" y="457.9219"/><text fill="#000000" font-family="sans-serif" font-size="13" font-weight="700" lengthAdjust="spacing" textLength="128.3687" x="343.1887" y="473.9888">Read path (RF07)</text><g class="message" data-entity-1="part1" data-entity-2="part2" data-source-line="24" id="msg9"><polygon fill="#181818" points="182.627,508.1875,192.627,512.1875,182.627,516.1875,186.627,512.1875" style="stroke:#181818;stroke-width:1;stroke-linejoin:miter;stroke-miterlimit:10;"/><line style="stroke:#181818;stroke-width:1;" x1="52.7446" x2="188.627" y1="512.1875" y2="512.1875"/><text fill="#000000" font-family="sans-serif" font-size="13" lengthAdjust="spacing" textLength="80.9199" x="59.7446" y="507.1216">Consulta dia</text></g><g class="message" data-entity-1="part2" data-entity-2="part4" data-source-line="25" id="msg10"><polygon fill="#181818" points="490.0532,537.3203,500.0532,541.3203,490.0532,545.3203,494.0532,541.3203" style="stroke:#181818;stroke-width:1;stroke-linejoin:miter;stroke-miterlimit:10;"/><line style="stroke:#181818;stroke-width:1;" x1="194.627" x2="496.0532" y1="541.3203" y2="541.3203"/><text fill="#000000" font-family="sans-serif" font-size="13" lengthAdjust="spacing" textLength="161.3574" x="201.627" y="536.2544">GET /api/relatorios/{dia}</text></g><g class="message" data-entity-1="part4" data-entity-2="part5" data-source-line="26" id="msg11"><polygon fill="#181818" points="601.6826,566.4531,611.6826,570.4531,601.6826,574.4531,605.6826,570.4531" style="stroke:#181818;stroke-width:1;stroke-linejoin:miter;stroke-miterlimit:10;"/><line style="stroke:#181818;stroke-width:1;" x1="502.0532" x2="607.6826" y1="570.4531" y2="570.4531"/><text fill="#000000" font-family="sans-serif" font-size="13" lengthAdjust="spacing" textLength="87.6294" x="509.0532" y="565.3872">SELECT saldo</text></g><g class="message" data-entity-1="part4" data-entity-2="part2" data-source-line="27" id="msg12"><polygon fill="#181818" points="205.627,595.5859,195.627,599.5859,205.627,603.5859,201.627,599.5859" style="stroke:#181818;stroke-width:1;stroke-linejoin:miter;stroke-miterlimit:10;"/><line style="stroke:#181818;stroke-width:1;stroke-dasharray:2,2;" x1="199.627" x2="501.0532" y1="599.5859" y2="599.5859"/><text fill="#000000" font-family="sans-serif" font-size="13" lengthAdjust="spacing" textLength="74.0835" x="211.627" y="594.52">200 ou 204</text></g><g class="message" data-entity-1="part2" data-entity-2="part1" data-source-line="28" id="msg13"><polygon fill="#181818" points="63.7446,624.7188,53.7446,628.7188,63.7446,632.7188,59.7446,628.7188" style="stroke:#181818;stroke-width:1;stroke-linejoin:miter;stroke-miterlimit:10;"/><line style="stroke:#181818;stroke-width:1;stroke-dasharray:2,2;" x1="57.7446" x2="193.627" y1="628.7188" y2="628.7188"/><text fill="#000000" font-family="sans-serif" font-size="13" lengthAdjust="spacing" textLength="117.8823" x="69.7446" y="623.6528">Saldo consolidado</text></g><?plantuml-src VL9XIyCm4FsUNt7iatuOssGY52PiNIV2qAwTxAESRPZ1hAb9EXJnltjDkpPJ44gRt7kyk_UkLbZ9OIMh3mMPEfIIMmL3IFXU6AjHWyGYmmClg8oM4wSmbRG469IvOWmpgpI4wi1r9h2md9MehSX4IHSOhBGgx03GW3kTW_Fu7jQTld6qUIdgqbzYmYLIAz7pgC9ojFY2XiCWLiRkDKytQuSl5-ozuXM7T9EUY-sKVkFQaPeZOxCPxBGWUoNQLxX8LkF99SncpBC5mzl6GW0FwgYyN9WhrtWxUm3nOxg54PPYrDCCQ-6QkLm4aA8yeg_ZuJHqu4KJQe6vH-XdkHfF8DISLfCx6tFpIOJQmNH4hsjdWzHgqSPj0D7HjMkkfsaIdg7CAedDOg5-1FuYFSLfb6mRXdacl5w7wvjmpFlqRlv9Bsp_82VlHqVh3E0kQeFJtRf7NyJyPWsZ2ozQHs4xIGVviOn1LVIPdbeGvitZqi-L-vsL57cTxWy0?></g></svg>