<svg xmlns="http://www.w3.org/2000/svg" xmlns:xlink="http://www.w3.org/1999/xlink" contentStyleType="text/css" data-diagram-type="SEQUENCE" height="886px" preserveAspectRatio="none" style="width:1012px;height:886px;background:#FFFFFF;" version="1.1" viewBox="0 0 1012 886" width="1012px" zoomAndPan="magnify"><?plantuml 1.2026.6?><defs/><g><g class="title" data-source-line="1"><text fill="#000000" font-family="sans-serif" font-size="14" font-weight="700" lengthAdjust="spacing" textLength="328.3574" x="338.3606" y="27.9951">RF07 - Consultar saldo diario consolidado</text></g><rect fill="none" height="462.6016" style="stroke:#000000;stroke-width:1.5;" width="986.0786" x="10" y="324.5234"/><rect fill="none" height="183.6016" style="stroke:#000000;stroke-width:1.5;" width="627.4839" x="358.5947" y="538.2578"/><g class="participant-lifeline" data-entity-uid="part1" data-qualified-name="Comerciante" data-source-line="3" id="part1-lifeline"><g><title>Comerciante</title><rect fill="#000000" fill-opacity="0.00000" height="685.5313" width="8" x="63.7446" y="118.5938"/><line style="stroke:#181818;stroke-width:0.5;stroke-dasharray:5,5;" x1="67" x2="67" y1="118.5938" y2="804.125"/></g></g><g class="participant-lifeline" data-entity-uid="part2" data-qualified-name="Front" data-source-line="4" id="part2-lifeline"><g><title>Front Blazor</title><rect fill="#000000" fill-opacity="0.00000" height="685.5313" width="8" x="230.459" y="118.5938"/><line style="stroke:#181818;stroke-width:0.5;stroke-dasharray:5,5;" x1="233.9941" x2="233.9941" y1="118.5938" y2="804.125"/></g></g><g class="participant-lifeline" data-entity-uid="part3" data-qualified-name="APIGW" data-source-line="5" id="part3-lifeline"><g><title>API Gateway</title><rect fill="#000000" fill-opacity="0.00000" height="685.5313" width="8" x="415.8164" y="118.5938"/><line style="stroke:#181818;stroke-width:0.5;stroke-dasharray:5,5;" x1="419.5947" x2="419.5947" y1="118.5938" y2="804.125"/></g></g><g class="participant-lifeline" data-entity-uid="part4" data-qualified-name="ApiRel" data-source-line="6" id="part4-lifeline"><g><title>API Relatorios</title><rect fill="#000000" fill-opacity="0.00000" height="685.5313" width="8" x="579.1094" y="118.5938"/><line style="stroke:#181818;stroke-width:0.5;stroke-dasharray:5,5;" x1="582.6255" x2="582.6255" y1="118.5938" y2="804.125"/></g></g><g class="participant-lifeline" data-entity-uid="part5" data-qualified-name="Redis" data-source-line="7" id="part5-lifeline"><g><title>Redis</title><rect fill="#000000" fill-opacity="0.00000" height="685.5313" width="8" x="792.3965" y="118.5938"/><line style="stroke:#181818;stroke-width:0.5;stroke-dasharray:5,5;" x1="796.1909" x2="796.1909" y1="118.5938" y2="804.125"/></g></g><g class="participant-lifeline" data-entity-uid="part6" data-qualified-name="DB" data-source-line="8" id="part6-lifeline"><g><title>Aurora . PostgreSQL</title><rect fill="#000000" fill-opacity="0.00000" height="685.5313" width="8" x="898.3403" y="118.5938"/><line style="stroke:#181818;stroke-width:0.5;stroke-dasharray:5,5;" x1="901.6021" x2="901.6021" y1="118.5938" y2="804.125"/></g></g><g class="participant participant-head" data-entity-uid="part1" data-qualified-name="Comerciante" data-source-line="3" id="part1-head"><text fill="#000000" font-family="sans-serif" font-size="14" lengthAdjust="spacing" textLength="89.4893" x="20" y="115.292">Comerciante</text><ellipse cx="67.7446" cy="50.7969" fill="#E2E2F0" rx="8" ry="8" style="stroke:#181818;stroke-width:0.5;"/><path d="M67.7446,58.7969 L67.7446,85.7969 M54.7446,66.7969 L80.7446,66.7969 M67.7446,85.7969 L54.7446,100.7969 M67.7446,85.7969 L80.7446,100.7969" fill="none" style="stroke:#181818;stroke-width:0.5;"/></g><g class="participant participant-tail" data-entity-uid="part1" data-qualified-name="Comerciante" data-source-line="3" id="part1-tail"><text fill="#000000" font-family="sans-serif" font-size="14" lengthAdjust="spacing" textLength="89.4893" x="20" y="816.1201">Comerciante</text><ellipse cx="67.7446" cy="827.9219" fill="#E2E2F0" rx="8" ry="8" style="stroke:#181818;stroke-width:0.5;"/><path d="M67.7446,835.9219 L67.7446,862.9219 M54.7446,843.9219 L80.7446,843.9219 M67.7446,862.9219 L54.7446,877.9219 M67.7446,862.9219 L80.7446,877.9219" fill="none" style="stroke:#181818;stroke-width:0.5;"/></g><g class="participant participant-head" data-entity-uid="part2" data-qualified-name="Front" data-source-line="4" id="part2-head"><rect fill="#E2E2F0" height="30.2969" rx="2.5" ry="2.5" style="stroke:#181818;stroke-width:0.5;" width="98.9297" x="184.9941" y="87.2969"/><text fill="#000000" font-family="sans-serif" font-size="14" lengthAdjust="spacing" textLength="84.9297" x="191.9941" y="107.292">Front Blazor</text></g><g class="participant participant-tail" data-entity-uid="part2" data-qualified-name="Front" data-source-line="4" id="part2-tail"><rect fill="#E2E2F0" height="30.2969" rx="2.5" ry="2.5" style="stroke:#181818;stroke-width:0.5;" width="98.9297" x="184.9941" y="803.125"/><text fill="#000000" font-family="sans-serif" font-size="14" lengthAdjust="spacing" textLength="84.9297" x="191.9941" y="823.1201">Front Blazor</text></g><g class="participant participant-head" data-entity-uid="part3" data-qualified-name="APIGW" data-source-line="5" id="part3-head"><rect fill="#E2E2F0" height="30.2969" rx="2.5" ry="2.5" style="stroke:#181818;stroke-width:0.5;" width="102.4434" x="368.5947" y="87.2969"/><text fill="#000000" font-family="sans-serif" font-size="14" lengthAdjust="spacing" textLength="88.4434" x="375.5947" y="107.292">API Gateway</text></g><g class="participant participant-tail" data-entity-uid="part3" data-qualified-name="APIGW" data-source-line="5" id="part3-tail"><rect fill="#E2E2F0" height="30.2969" rx="2.5" ry="2.5" style="stroke:#181818;stroke-width:0.5;" width="102.4434" x="368.5947" y="803.125"/><text fill="#000000" font-family="sans-serif" font-size="14" lengthAdjust="spacing" textLength="88.4434" x="375.5947" y="823.1201">API Gateway</text></g><g class="participant participant-head" data-entity-uid="part4" data-qualified-name="ApiRel" data-source-line="6" id="part4-head"><rect fill="#E2E2F0" height="30.2969" rx="2.5" ry="2.5" style="stroke:#181818;stroke-width:0.5;" width="110.9678" x="527.6255" y="87.2969"/><text fill="#000000" font-family="sans-serif" font-size="14" lengthAdjust="spacing" textLength="96.9678" x="534.6255" y="107.292">API Relatorios</text></g><g class="participant participant-tail" data-entity-uid="part4" data-qualified-name="ApiRel" data-source-line="6" id="part4-tail"><rect fill="#E2E2F0" height="30.2969" rx="2.5" ry="2.5" style="stroke:#181818;stroke-width:0.5;" width="110.9678" x="527.6255" y="803.125"/><text fill="#000000" font-family="sans-serif" font-size="14" lengthAdjust="spacing" textLength="96.9678" x="534.6255" y="823.1201">API Relatorios</text></g><g class="participant participant-head" data-entity-uid="part5" data-qualified-name="Redis" data-source-line="7" id="part5-head"><text fill="#000000" font-family="sans-serif" font-size="14" lengthAdjust="spacing" textLength="38.4111" x="774.1909" y="115.292">Redis</text><path d="M778.3965,66.2969 C778.3965,56.2969 796.3965,56.2969 796.3965,56.2969 C796.3965,56.2969 814.3965,56.2969 814.3965,66.2969 L814.3965,92.2969 C814.3965,102.2969 796.3965,102.2969 796.3965,102.2969 C796.3965,102.2969 778.3965,102.2969 778.3965,92.2969 L778.3965,66.2969" fill="#E2E2F0" style="stroke:#181818;stroke-width:0.5;"/><path d="M778.3965,66.2969 C778.3965,76.2969 796.3965,76.2969 796.3965,76.2969 C796.3965,76.2969 814.3965,76.2969 814.3965,66.2969" fill="none" style="stroke:#181818;stroke-width:0.5;"/></g><g class="participant participant-tail" data-entity-uid="part5" data-qualified-name="Redis" data-source-line="7" id="part5-tail"><text fill="#000000" font-family="sans-serif" font-size="14" lengthAdjust="spacing" textLength="38.4111" x="774.1909" y="816.1201">Redis</text><path d="M778.3965,829.4219 C778.3965,819.4219 796.3965,819.4219 796.3965,819.4219 C796.3965,819.4219 814.3965,819.4219 814.3965,829.4219 L814.3965,855.4219 C814.3965,865.4219 796.3965,865.4219 796.3965,865.4219 C796.3965,865.4219 778.3965,865.4219 778.3965,855.4219 L778.3965,829.4219" fill="#E2E2F0" style="stroke:#181818;stroke-width:0.5;"/><path d="M778.3965,829.4219 C778.3965,839.4219 796.3965,839.4219 796.3965,839.4219 C796.3965,839.4219 814.3965,839.4219 814.3965,829.4219" fill="none" style="stroke:#181818;stroke-width:0.5;"/></g><g class="participant participant-head" data-entity-uid="part6" data-qualified-name="DB" data-source-line="8" id="part6-head"><text fill="#000000" font-family="sans-serif" font-size="14" lengthAdjust="spacing" textLength="141.4766" x="828.6021" y="115.292">Aurora / PostgreSQL</text><path d="M884.3403,66.2969 C884.3403,56.2969 902.3403,56.2969 902.3403,56.2969 C902.3403,56.2969 920.3403,56.2969 920.3403,66.2969 L920.3403,92.2969 C920.3403,102.2969 902.3403,102.2969 902.3403,102.2969 C902.3403,102.2969 884.3403,102.2969 884.3403,92.2969 L884.3403,66.2969" fill="#E2E2F0" style="stroke:#181818;stroke-width:0.5;"/><path d="M884.3403,66.2969 C884.3403,76.2969 902.3403,76.2969 902.3403,76.2969 C902.3403,76.2969 920.3403,76.2969 920.3403,66.2969" fill="none" style="stroke:#181818;stroke-width:0.5;"/></g><g class="participant participant-tail" data-entity-uid="part6" data-qualified-name="DB" data-source-line="8" id="part6-tail"><text fill="#000000" font-family="sans-serif" font-size="14" lengthAdjust="spacing" textLength="141.4766" x="828.6021" y="816.1201">Aurora / PostgreSQL</text><path d="M884.3403,829.4219 C884.3403,819.4219 902.3403,819.4219 902.3403,819.4219 C902.3403,819.4219 920.3403,819.4219 920.3403,829.4219 L920.3403,855.4219 C920.3403,865.4219 902.3403,865.4219 902.3403,865.4219 C902.3403,865.4219 884.3403,865.4219 884.3403,855.4219 L884.3403,829.4219" fill="#E2E2F0" style="stroke:#181818;stroke-width:0.5;"/><path d="M884.3403,829.4219 C884.3403,839.4219 902.3403,839.4219 902.3403,839.4219 C902.3403,839.4219 920.3403,839.4219 920.3403,829.4219" fill="none" style="stroke:#181818;stroke-width:0.5;"/></g><g class="message" data-entity-1="part1" data-entity-2="part2" data-source-line="10" id="msg1"><polygon fill="#181818" points="222.459,145.7266,232.459,149.7266,222.459,153.7266,226.459,149.7266" style="stroke:#181818;stroke-width:1;stroke-linejoin:miter;stroke-miterlimit:10;"/><line style="stroke:#181818;stroke-width:1;" x1="67.7446" x2="228.459" y1="149.7266" y2="149.7266"/><text fill="#000000" font-family="sans-serif" font-size="13" lengthAdjust="spacing" textLength="96.1924" x="74.7446" y="144.6606">Seleciona data</text></g><g class="message" data-entity-1="part2" data-entity-2="part3" data-source-line="11" id="msg2"><polygon fill="#181818" points="407.8164,189.9922,417.8164,193.9922,407.8164,197.9922,411.8164,193.9922" style="stroke:#181818;stroke-width:1;stroke-linejoin:miter;stroke-miterlimit:10;"/><line style="stroke:#181818;stroke-width:1;" x1="234.459" x2="413.8164" y1="193.9922" y2="193.9922"/><text fill="#000000" font-family="sans-serif" font-size="13" lengthAdjust="spacing" textLength="161.3574" x="241.459" y="173.7935">GET /api/relatorios/{dia}</text><text fill="#000000" font-family="sans-serif" font-size="13" lengthAdjust="spacing" textLength="72.3315" x="241.459" y="188.9263">Bearer JWT</text></g><g class="message" data-entity-1="part3" data-entity-2="part3" data-source-line="12" id="msg3"><line style="stroke:#181818;stroke-width:1;" x1="419.8164" x2="461.8164" y1="238.2578" y2="238.2578"/><line style="stroke:#181818;stroke-width:1;" x1="461.8164" x2="461.8164" y1="238.2578" y2="251.2578"/><line style="stroke:#181818;stroke-width:1;" x1="420.8164" x2="461.8164" y1="251.2578" y2="251.2578"/><polygon fill="#181818" points="430.8164,247.2578,420.8164,251.2578,430.8164,255.2578,426.8164,251.2578" style="stroke:#181818;stroke-width:1;stroke-linejoin:miter;stroke-miterlimit:10;"/><text fill="#000000" font-family="sans-serif" font-size="13" lengthAdjust="spacing" textLength="123.4492" x="426.8164" y="218.0591">Valida JWT e scope</text><text fill="#000000" font-family="sans-serif" font-size="13" lengthAdjust="spacing" textLength="95.5957" x="426.8164" y="233.1919">relatorios:read</text></g><g class="message" data-entity-1="part3" data-entity-2="part4" data-source-line="13" id="msg4"><polygon fill="#181818" points="571.1094,276.3906,581.1094,280.3906,571.1094,284.3906,575.1094,280.3906" style="stroke:#181818;stroke-width:1;stroke-linejoin:miter;stroke-miterlimit:10;"/><line style="stroke:#181818;stroke-width:1;" x1="419.8164" x2="577.1094" y1="280.3906" y2="280.3906"/><text fill="#000000" font-family="sans-serif" font-size="13" lengthAdjust="spacing" textLength="126.1216" x="426.8164" y="275.3247">Encaminha request</text></g><g class="message" data-entity-1="part4" data-entity-2="part5" data-source-line="15" id="msg5"><polygon fill="#181818" points="784.3965,305.5234,794.3965,309.5234,784.3965,313.5234,788.3965,309.5234" style="stroke:#181818;stroke-width:1;stroke-linejoin:miter;stroke-miterlimit:10;"/><line style="stroke:#181818;stroke-width:1;" x1="583.1094" x2="790.3965" y1="309.5234" y2="309.5234"/><text fill="#000000" font-family="sans-serif" font-size="13" lengthAdjust="spacing" textLength="189.2871" x="590.1094" y="304.4575">GET saldo:{merchant}:{dia}</text></g><path d="M10,324.5234 L74.4429,324.5234 L74.4429,331.6563 L64.4429,341.6563 L10,341.6563 L10,324.5234" fill="#EEEEEE" style="stroke:#000000;stroke-width:1.5;"/><rect fill="none" height="462.6016" style="stroke:#000000;stroke-width:1.5;" width="986.0786" x="10" y="324.5234"/><text fill="#000000" font-family="sans-serif" font-size="13" font-weight="700" lengthAdjust="spacing" textLength="19.4429" x="25" y="337.5903">alt</text><text fill="#000000" font-family="sans-serif" font-size="11" font-weight="700" lengthAdjust="spacing" textLength="138.3379" x="89.4429" y="336.7339">[Cache hit - producao]</text><g class="message" data-entity-1="part5" data-entity-2="part4" data-source-line="17" id="msg6"><polygon fill="#181818" points="594.1094,358.7891,584.1094,362.7891,594.1094,366.7891,590.1094,362.7891" style="stroke:#181818;stroke-width:1;stroke-linejoin:miter;stroke-miterlimit:10;"/><line style="stroke:#181818;stroke-width:1;stroke-dasharray:2,2;" x1="588.1094" x2="795.3965" y1="362.7891" y2="362.7891"/><text fill="#000000" font-family="sans-serif" font-size="13" lengthAdjust="spacing" textLength="117.8823" x="600.1094" y="357.7231">Saldo consolidado</text></g><g class="message" data-entity-1="part4" data-entity-2="part3" data-source-line="18" id="msg7"><polygon fill="#181818" points="430.8164,387.9219,420.8164,391.9219,430.8164,395.9219,426.8164,391.9219" style="stroke:#181818;stroke-width:1;stroke-linejoin:miter;stroke-miterlimit:10;"/><line style="stroke:#181818;stroke-width:1;stroke-dasharray:2,2;" x1="424.8164" x2="582.1094" y1="391.9219" y2="391.9219"/><text fill="#000000" font-family="sans-serif" font-size="13" lengthAdjust="spacing" textLength="139.293" x="436.8164" y="386.856">200 OK { dia, saldo }</text></g><g class="message" data-entity-1="part3" data-entity-2="part2" data-source-line="19" id="msg8"><polygon fill="#181818" points="245.459,417.0547,235.459,421.0547,245.459,425.0547,241.459,421.0547" style="stroke:#181818;stroke-width:1;stroke-linejoin:miter;stroke-miterlimit:10;"/><line style="stroke:#181818;stroke-width:1;stroke-dasharray:2,2;" x1="239.459" x2="418.8164" y1="421.0547" y2="421.0547"/><text fill="#000000" font-family="sans-serif" font-size="13" lengthAdjust="spacing" textLength="58.5698" x="251.459" y="415.9888">Relatorio</text></g><g class="message" data-entity-1="part2" data-entity-2="part1" data-source-line="20" id="msg9"><polygon fill="#181818" points="78.7446,446.1875,68.7446,450.1875,78.7446,454.1875,74.7446,450.1875" style="stroke:#181818;stroke-width:1;stroke-linejoin:miter;stroke-miterlimit:10;"/><line style="stroke:#181818;stroke-width:1;stroke-dasharray:2,2;" x1="72.7446" x2="233.459" y1="450.1875" y2="450.1875"/><text fill="#000000" font-family="sans-serif" font-size="13" lengthAdjust="spacing" textLength="118.7583" x="84.7446" y="445.1216">Exibe saldo do dia</text></g><line style="stroke:#000000;stroke-width:1;stroke-dasharray:2,2;" x1="10" x2="996.0786" y1="459.1875" y2="459.1875"/><text fill="#000000" font-family="sans-serif" font-size="11" font-weight="700" lengthAdjust="spacing" textLength="79.519" x="15" y="469.3979">[Cache miss]</text><g class="message" data-entity-1="part5" data-entity-2="part4" data-source-line="22" id="msg10"><polygon fill="#181818" points="594.1094,490.125,584.1094,494.125,594.1094,498.125,590.1094,494.125" style="stroke:#181818;stroke-width:1;stroke-linejoin:miter;stroke-miterlimit:10;"/><line style="stroke:#181818;stroke-width:1;stroke-dasharray:2,2;" x1="588.1094" x2="795.3965" y1="494.125" y2="494.125"/><text fill="#000000" font-family="sans-serif" font-size="13" lengthAdjust="spacing" textLength="23.7021" x="600.1094" y="489.0591">null</text></g><g class="message" data-entity-1="part4" data-entity-2="part6" data-source-line="23" id="msg11"><polygon fill="#181818" points="890.3403,519.2578,900.3403,523.2578,890.3403,527.2578,894.3403,523.2578" style="stroke:#181818;stroke-width:1;stroke-linejoin:miter;stroke-miterlimit:10;"/><line style="stroke:#181818;stroke-width:1;" x1="583.1094" x2="896.3403" y1="523.2578" y2="523.2578"/><text fill="#000000" font-family="sans-serif" font-size="13" lengthAdjust="spacing" textLength="263.9673" x="590.1094" y="518.1919">SELECT saldos_diarios WHERE dia = :dia</text></g><path d="M358.5947,538.2578 L423.0376,538.2578 L423.0376,545.3906 L413.0376,555.3906 L358.5947,555.3906 L358.5947,538.2578" fill="#EEEEEE" style="stroke:#000000;stroke-width:1.5;"/><rect fill="none" height="183.6016" style="stroke:#000000;stroke-width:1.5;" width="627.4839" x="358.5947" y="538.2578"/><text fill="#000000" font-family="sans-serif" font-size="13" font-weight="700" lengthAdjust="spacing" textLength="19.4429" x="373.5947" y="551.3247">alt</text><text fill="#000000" font-family="sans-serif" font-size="11" font-weight="700" lengthAdjust="spacing" textLength="136.9844" x="438.0376" y="550.4683">[Registro encontrado]</text><g class="message" data-entity-1="part6" data-entity-2="part4" data-source-line="25" id="msg12"><polygon fill="#181818" points="594.1094,572.5234,584.1094,576.5234,594.1094,580.5234,590.1094,576.5234" style="stroke:#181818;stroke-width:1;stroke-linejoin:miter;stroke-miterlimit:10;"/><line style="stroke:#181818;stroke-width:1;stroke-dasharray:2,2;" x1="588.1094" x2="901.3403" y1="576.5234" y2="576.5234"/><text fill="#000000" font-family="sans-serif" font-size="13" lengthAdjust="spacing" textLength="36.0356" x="600.1094" y="571.4575">Saldo</text></g><g class="message" data-entity-1="part4" data-entity-2="part5" data-source-line="26" id="msg13"><polygon fill="#181818" points="784.3965,601.6563,794.3965,605.6563,784.3965,609.6563,788.3965,605.6563" style="stroke:#181818;stroke-width:1;stroke-linejoin:miter;stroke-miterlimit:10;"/><line style="stroke:#181818;stroke-width:1;" x1="583.1094" x2="790.3965" y1="605.6563" y2="605.6563"/><text fill="#000000" font-family="sans-serif" font-size="13" lengthAdjust="spacing" textLength="103.9365" x="590.1094" y="600.5903">Repopula cache</text></g><g class="message" data-entity-1="part4" data-entity-2="part3" data-source-line="27" id="msg14"><polygon fill="#181818" points="430.8164,630.7891,420.8164,634.7891,430.8164,638.7891,426.8164,634.7891" style="stroke:#181818;stroke-width:1;stroke-linejoin:miter;stroke-miterlimit:10;"/><line style="stroke:#181818;stroke-width:1;stroke-dasharray:2,2;" x1="424.8164" x2="582.1094" y1="634.7891" y2="634.7891"/><text fill="#000000" font-family="sans-serif" font-size="13" lengthAdjust="spacing" textLength="139.293" x="436.8164" y="629.7231">200 OK { dia, saldo }</text></g><line style="stroke:#000000;stroke-width:1;stroke-dasharray:2,2;" x1="358.5947" x2="986.0786" y1="643.7891" y2="643.7891"/><text fill="#000000" font-family="sans-serif" font-size="11" font-weight="700" lengthAdjust="spacing" textLength="159.2314" x="363.5947" y="653.9995">[Sem consolidacao ainda]</text><g class="message" data-entity-1="part6" data-entity-2="part4" data-source-line="29" id="msg15"><polygon fill="#181818" points="594.1094,674.7266,584.1094,678.7266,594.1094,682.7266,590.1094,678.7266" style="stroke:#181818;stroke-width:1;stroke-linejoin:miter;stroke-miterlimit:10;"/><line style="stroke:#181818;stroke-width:1;stroke-dasharray:2,2;" x1="588.1094" x2="901.3403" y1="678.7266" y2="678.7266"/><text fill="#000000" font-family="sans-serif" font-size="13" lengthAdjust="spacing" textLength="34.0488" x="600.1094" y="673.6606">vazio</text></g><g class="message" data-entity-1="part4" data-entity-2="part3" data-source-line="30" id="msg16"><polygon fill="#181818" points="430.8164,706.8594,420.8164,710.8594,430.8164,714.8594,426.8164,710.8594" style="stroke:#181818;stroke-width:1;stroke-linejoin:miter;stroke-miterlimit:10;"/><line style="stroke:#181818;stroke-width:1;stroke-dasharray:2,2;" x1="424.8164" x2="582.1094" y1="710.8594" y2="710.8594"/><text fill="#000000" font-family="sans-serif" font-size="13" lengthAdjust="spacing" textLength="102.4575" x="436.8164" y="705.7935">204 No Content</text></g><path d="M588,691.7266 L588,716.7266 L798,716.7266 L798,701.7266 L788,691.7266 L588,691.7266" fill="#FEFFDD" style="stroke:#181818;stroke-width:0.5;"/><path d="M788,691.7266 L788,701.7266 L798,701.7266 L788,691.7266" fill="#FEFFDD" style="stroke:#181818;stroke-width:0.5;"/><text fill="#000000" font-family="sans-serif" font-size="13" lengthAdjust="spacing" textLength="189.2617" x="594" y="708.7935">RN07.3 - aguarda RF04/RF05</text><g class="message" data-entity-1="part3" data-entity-2="part2" data-source-line="33" id="msg18"><polygon fill="#181818" points="245.459,745.9922,235.459,749.9922,245.459,753.9922,241.459,749.9922" style="stroke:#181818;stroke-width:1;stroke-linejoin:miter;stroke-miterlimit:10;"/><line style="stroke:#181818;stroke-width:1;stroke-dasharray:2,2;" x1="239.459" x2="418.8164" y1="749.9922" y2="749.9922"/><text fill="#000000" font-family="sans-serif" font-size="13" lengthAdjust="spacing" textLength="59.8457" x="251.459" y="744.9263">Resposta</text></g><g class="message" data-entity-1="part2" data-entity-2="part1" data-source-line="34" id="msg19"><polygon fill="#181818" points="78.7446,775.125,68.7446,779.125,78.7446,783.125,74.7446,779.125" style="stroke:#181818;stroke-width:1;stroke-linejoin:miter;stroke-miterlimit:10;"/><line style="stroke:#181818;stroke-width:1;stroke-dasharray:2,2;" x1="72.7446" x2="233.459" y1="779.125" y2="779.125"/><text fill="#000000" font-family="sans-serif" font-size="13" lengthAdjust="spacing" textLength="142.7144" x="84.7446" y="774.0591">Saldo ou estado vazio</text></g><?plantuml-src ZLJRQXin47tNLmn-hclJfWGM6eYTZNi9QReEzKkWJBI3Lo1BMqdRIup_FIF9bmt6eVjWUpL7cdFc73cee0cgw_4v365gZUzqG0SUTMsXLkYK1SdBLgiQQoi4oc0T8rVaf48JIBJeWfAgvHSON3lBNnEDJzOD03saXPUOoxlFCCD0V_1VWl3xR74CgKWZzrBMPrIhU4NK6F0HFS6WebhbKlhLgrnspZg44TnP7vQEvjzl4kvg8aIFEGmlChq2vgH9AciGuYaYg-1oebR0hBo74RPgvFQSHckUpkR1J0WTEVYok1S9tDlr0-FGOWa8lBGjFPZ30OKZh7jxahm2IYDnfKo3uEXNHpu8aKiHb8HcEicXOXt5D2ncKoG-0dM0ASg6e56i05fdwqwY5S1FsWx3NhTvyhblSCJj6Xwal1kFuTjNMCT8lDccOvEnMS1Xb7lRKdaxIIxt1iyg_wf7sgKi1KsGPkiozPNo_WHXqsdzWkC5kyewofjokXsA_vbpws7ngQpAU3XyX2BsY1lZX2fQAX-S1JAiFRYTyFXSJOudj2yUML5HQzjE8yZ8_0ZtFnDCmkUqEjZ0VW4gK-CfKh_nITbNcvt1hOttEH3VlXtGM0wzKyicsdGxFd_xdXE2omuTnvJ_0yv6_F4XapBrANjzoxSANtCtfyfsmF7bqMxfnYEV0G00?></g></svg>