<svg xmlns="http://www.w3.org/2000/svg" xmlns:xlink="http://www.w3.org/1999/xlink" contentStyleType="text/css" data-diagram-type="SEQUENCE" height="787px" preserveAspectRatio="none" style="width:1240px;height:787px;background:#FFFFFF;" version="1.1" viewBox="0 0 1240 787" width="1240px" zoomAndPan="magnify"><?plantuml 1.2026.6?><defs/><g><g class="title" data-source-line="1"><text fill="#000000" font-family="sans-serif" font-size="14" font-weight="700" lengthAdjust="spacing" textLength="430.0283" x="401.8157" y="27.9951">RF01 + RF03 - Registrar lancamento e publicar evento</text></g><rect fill="none" height="335.2656" style="stroke:#000000;stroke-width:1.5;" width="1215.6597" x="9" y="352.6563"/><g class="participant-lifeline" data-entity-uid="part1" data-qualified-name="Comerciante" data-source-line="3" id="part1-lifeline"><g><title>Comerciante</title><rect fill="#000000" fill-opacity="0.00000" height="586.3281" width="8" x="82.7446" y="118.5938"/><line style="stroke:#181818;stroke-width:0.5;stroke-dasharray:5,5;" x1="86" x2="86" y1="118.5938" y2="704.9219"/></g></g><g class="participant-lifeline" data-entity-uid="part2" data-qualified-name="Front" data-source-line="4" id="part2-lifeline"><g><title>Front Blazor</title><rect fill="#000000" fill-opacity="0.00000" height="586.3281" width="8" x="262.6304" y="118.5938"/><line style="stroke:#181818;stroke-width:0.5;stroke-dasharray:5,5;" x1="266.1655" x2="266.1655" y1="118.5938" y2="704.9219"/></g></g><g class="participant-lifeline" data-entity-uid="part3" data-qualified-name="APIGW" data-source-line="5" id="part3-lifeline"><g><title>API Gateway</title><rect fill="#000000" fill-opacity="0.00000" height="586.3281" width="8" x="437.2729" y="118.5938"/><line style="stroke:#181818;stroke-width:0.5;stroke-dasharray:5,5;" x1="441.0513" x2="441.0513" y1="118.5938" y2="704.9219"/></g></g><g class="participant-lifeline" data-entity-uid="part4" data-qualified-name="ApiLanc" data-source-line="6" id="part4-lifeline"><g><title>API Lancamentos</title><rect fill="#000000" fill-opacity="0.00000" height="586.3281" width="8" x="587.3945" y="118.5938"/><line style="stroke:#181818;stroke-width:0.5;stroke-dasharray:5,5;" x1="591.0947" x2="591.0947" y1="118.5938" y2="704.9219"/></g></g><g class="participant-lifeline" data-entity-uid="part5" data-qualified-name="DB" data-source-line="7" id="part5-lifeline"><g><title>Aurora . PostgreSQL</title><rect fill="#000000" fill-opacity="0.00000" height="586.3281" width="8" x="785.2925" y="118.5938"/><line style="stroke:#181818;stroke-width:0.5;stroke-dasharray:5,5;" x1="788.5542" x2="788.5542" y1="118.5938" y2="704.9219"/></g></g><g class="participant-lifeline" data-entity-uid="part6" data-qualified-name="SQS" data-source-line="8" id="part6-lifeline"><g><title>SQS lancamento-criado</title><rect fill="#000000" fill-opacity="0.00000" height="586.3281" width="8" x="961.2637" y="118.5938"/><line style="stroke:#181818;stroke-width:0.5;stroke-dasharray:5,5;" x1="965.0308" x2="965.0308" y1="118.5938" y2="704.9219"/></g></g><g class="participant participant-head" data-entity-uid="part1" data-qualified-name="Comerciante" data-source-line="3" id="part1-head"><text fill="#000000" font-family="sans-serif" font-size="14" lengthAdjust="spacing" textLength="89.4893" x="39" y="115.292">Comerciante</text><ellipse cx="86.7446" cy="50.7969" fill="#E2E2F0" rx="8" ry="8" style="stroke:#181818;stroke-width:0.5;"/><path d="M86.7446,58.7969 L86.7446,85.7969 M73.7446,66.7969 L99.7446,66.7969 M86.7446,85.7969 L73.7446,100.7969 M86.7446,85.7969 L99.7446,100.7969" fill="none" style="stroke:#181818;stroke-width:0.5;"/></g><g class="participant participant-tail" data-entity-uid="part1" data-qualified-name="Comerciante" data-source-line="3" id="part1-tail"><text fill="#000000" font-family="sans-serif" font-size="14" lengthAdjust="spacing" textLength="89.4893" x="39" y="716.917">Comerciante</text><ellipse cx="86.7446" cy="728.7188" fill="#E2E2F0" rx="8" ry="8" style="stroke:#181818;stroke-width:0.5;"/><path d="M86.7446,736.7188 L86.7446,763.7188 M73.7446,744.7188 L99.7446,744.7188 M86.7446,763.7188 L73.7446,778.7188 M86.7446,763.7188 L99.7446,778.7188" fill="none" style="stroke:#181818;stroke-width:0.5;"/></g><g class="participant participant-head" data-entity-uid="part2" data-qualified-name="Front" data-source-line="4" id="part2-head"><rect fill="#E2E2F0" height="30.2969" rx="2.5" ry="2.5" style="stroke:#181818;stroke-width:0.5;" width="98.9297" x="217.1655" y="87.2969"/><text fill="#000000" font-family="sans-serif" font-size="14" lengthAdjust="spacing" textLength="84.9297" x="224.1655" y="107.292">Front Blazor</text></g><g class="participant participant-tail" data-entity-uid="part2" data-qualified-name="Front" data-source-line="4" id="part2-tail"><rect fill="#E2E2F0" height="30.2969" rx="2.5" ry="2.5" style="stroke:#181818;stroke-width:0.5;" width="98.9297" x="217.1655" y="703.9219"/><text fill="#000000" font-family="sans-serif" font-size="14" lengthAdjust="spacing" textLength="84.9297" x="224.1655" y="723.917">Front Blazor</text></g><g class="participant participant-head" data-entity-uid="part3" data-qualified-name="APIGW" data-source-line="5" id="part3-head"><rect fill="#E2E2F0" height="30.2969" rx="2.5" ry="2.5" style="stroke:#181818;stroke-width:0.5;" width="102.4434" x="390.0513" y="87.2969"/><text fill="#000000" font-family="sans-serif" font-size="14" lengthAdjust="spacing" textLength="88.4434" x="397.0513" y="107.292">API Gateway</text></g><g class="participant participant-tail" data-entity-uid="part3" data-qualified-name="APIGW" data-source-line="5" id="part3-tail"><rect fill="#E2E2F0" height="30.2969" rx="2.5" ry="2.5" style="stroke:#181818;stroke-width:0.5;" width="102.4434" x="390.0513" y="703.9219"/><text fill="#000000" font-family="sans-serif" font-size="14" lengthAdjust="spacing" textLength="88.4434" x="397.0513" y="723.917">API Gateway</text></g><g class="participant participant-head" data-entity-uid="part4" data-qualified-name="ApiLanc" data-source-line="6" id="part4-head"><rect fill="#E2E2F0" height="30.2969" rx="2.5" ry="2.5" style="stroke:#181818;stroke-width:0.5;" width="134.5996" x="524.0947" y="87.2969"/><text fill="#000000" font-family="sans-serif" font-size="14" lengthAdjust="spacing" textLength="120.5996" x="531.0947" y="107.292">API Lancamentos</text></g><g class="participant participant-tail" data-entity-uid="part4" data-qualified-name="ApiLanc" data-source-line="6" id="part4-tail"><rect fill="#E2E2F0" height="30.2969" rx="2.5" ry="2.5" style="stroke:#181818;stroke-width:0.5;" width="134.5996" x="524.0947" y="703.9219"/><text fill="#000000" font-family="sans-serif" font-size="14" lengthAdjust="spacing" textLength="120.5996" x="531.0947" y="723.917">API Lancamentos</text></g><g class="participant participant-head" data-entity-uid="part5" data-qualified-name="DB" data-source-line="7" id="part5-head"><text fill="#000000" font-family="sans-serif" font-size="14" lengthAdjust="spacing" textLength="141.4766" x="715.5542" y="115.292">Aurora / PostgreSQL</text><path d="M771.2925,66.2969 C771.2925,56.2969 789.2925,56.2969 789.2925,56.2969 C789.2925,56.2969 807.2925,56.2969 807.2925,66.2969 L807.2925,92.2969 C807.2925,102.2969 789.2925,102.2969 789.2925,102.2969 C789.2925,102.2969 771.2925,102.2969 771.2925,92.2969 L771.2925,66.2969" fill="#E2E2F0" style="stroke:#181818;stroke-width:0.5;"/><path d="M771.2925,66.2969 C771.2925,76.2969 789.2925,76.2969 789.2925,76.2969 C789.2925,76.2969 807.2925,76.2969 807.2925,66.2969" fill="none" style="stroke:#181818;stroke-width:0.5;"/></g><g class="participant participant-tail" data-entity-uid="part5" data-qualified-name="DB" data-source-line="7" id="part5-tail"><text fill="#000000" font-family="sans-serif" font-size="14" lengthAdjust="spacing" textLength="141.4766" x="715.5542" y="716.917">Aurora / PostgreSQL</text><path d="M771.2925,730.2188 C771.2925,720.2188 789.2925,720.2188 789.2925,720.2188 C789.2925,720.2188 807.2925,720.2188 807.2925,730.2188 L807.2925,756.2188 C807.2925,766.2188 789.2925,766.2188 789.2925,766.2188 C789.2925,766.2188 771.2925,766.2188 771.2925,756.2188 L771.2925,730.2188" fill="#E2E2F0" style="stroke:#181818;stroke-width:0.5;"/><path d="M771.2925,730.2188 C771.2925,740.2188 789.2925,740.2188 789.2925,740.2188 C789.2925,740.2188 807.2925,740.2188 807.2925,730.2188" fill="none" style="stroke:#181818;stroke-width:0.5;"/></g><g class="participant participant-head" data-entity-uid="part6" data-qualified-name="SQS" data-source-line="8" id="part6-head"><path d="M878.0308,92.2969 L1052.4966,92.2969 C1057.4966,92.2969 1057.4966,105.4453 1057.4966,105.4453 C1057.4966,105.4453 1057.4966,118.5938 1052.4966,118.5938 L878.0308,118.5938 C873.0308,118.5938 873.0308,105.4453 873.0308,105.4453 C873.0308,105.4453 873.0308,92.2969 878.0308,92.2969" fill="#E2E2F0" style="stroke:#181818;stroke-width:0.5;"/><path d="M1052.4966,92.2969 C1047.4966,92.2969 1047.4966,105.4453 1047.4966,105.4453 C1047.4966,118.5938 1052.4966,118.5938 1052.4966,118.5938" fill="none" style="stroke:#181818;stroke-width:0.5;"/><text fill="#000000" font-family="sans-serif" font-size="14" lengthAdjust="spacing" textLength="164.4658" x="878.0308" y="110.292">SQS lancamento-criado</text></g><g class="participant participant-tail" data-entity-uid="part6" data-qualified-name="SQS" data-source-line="8" id="part6-tail"><path d="M878.0308,703.9219 L1052.4966,703.9219 C1057.4966,703.9219 1057.4966,717.0703 1057.4966,717.0703 C1057.4966,717.0703 1057.4966,730.2188 1052.4966,730.2188 L878.0308,730.2188 C873.0308,730.2188 873.0308,717.0703 873.0308,717.0703 C873.0308,717.0703 873.0308,703.9219 878.0308,703.9219" fill="#E2E2F0" style="stroke:#181818;stroke-width:0.5;"/><path d="M1052.4966,703.9219 C1047.4966,703.9219 1047.4966,717.0703 1047.4966,717.0703 C1047.4966,730.2188 1052.4966,730.2188 1052.4966,730.2188" fill="none" style="stroke:#181818;stroke-width:0.5;"/><text fill="#000000" font-family="sans-serif" font-size="14" lengthAdjust="spacing" textLength="164.4658" x="878.0308" y="721.917">SQS lancamento-criado</text></g><g class="message" data-entity-1="part1" data-entity-2="part2" data-source-line="10" id="msg1"><polygon fill="#181818" points="254.6304,145.7266,264.6304,149.7266,254.6304,153.7266,258.6304,149.7266" style="stroke:#181818;stroke-width:1;stroke-linejoin:miter;stroke-miterlimit:10;"/><line style="stroke:#181818;stroke-width:1;" x1="86.7446" x2="260.6304" y1="149.7266" y2="149.7266"/><text fill="#000000" font-family="sans-serif" font-size="13" lengthAdjust="spacing" textLength="155.8857" x="93.7446" y="144.6606">Preenche credito/debito</text></g><g class="message" data-entity-1="part2" data-entity-2="part3" data-source-line="11" id="msg2"><polygon fill="#181818" points="429.2729,189.9922,439.2729,193.9922,429.2729,197.9922,433.2729,193.9922" style="stroke:#181818;stroke-width:1;stroke-linejoin:miter;stroke-miterlimit:10;"/><line style="stroke:#181818;stroke-width:1;" x1="266.6304" x2="435.2729" y1="193.9922" y2="193.9922"/><text fill="#000000" font-family="sans-serif" font-size="13" lengthAdjust="spacing" textLength="150.6426" x="273.6304" y="173.7935">POST /api/lancamentos</text><text fill="#000000" font-family="sans-serif" font-size="13" lengthAdjust="spacing" textLength="72.3315" x="273.6304" y="188.9263">Bearer JWT</text></g><g class="message" data-entity-1="part3" data-entity-2="part3" data-source-line="12" id="msg3"><line style="stroke:#181818;stroke-width:1;" x1="441.2729" x2="483.2729" y1="238.2578" y2="238.2578"/><line style="stroke:#181818;stroke-width:1;" x1="483.2729" x2="483.2729" y1="238.2578" y2="251.2578"/><line style="stroke:#181818;stroke-width:1;" x1="442.2729" x2="483.2729" y1="251.2578" y2="251.2578"/><polygon fill="#181818" points="452.2729,247.2578,442.2729,251.2578,452.2729,255.2578,448.2729,251.2578" style="stroke:#181818;stroke-width:1;stroke-linejoin:miter;stroke-miterlimit:10;"/><text fill="#000000" font-family="sans-serif" font-size="13" lengthAdjust="spacing" textLength="123.4492" x="448.2729" y="218.0591">Valida JWT e scope</text><text fill="#000000" font-family="sans-serif" font-size="13" lengthAdjust="spacing" textLength="120.7197" x="448.2729" y="233.1919">lancamentos:write</text></g><g class="message" data-entity-1="part3" data-entity-2="part4" data-source-line="13" id="msg4"><polygon fill="#181818" points="579.3945,276.3906,589.3945,280.3906,579.3945,284.3906,583.3945,280.3906" style="stroke:#181818;stroke-width:1;stroke-linejoin:miter;stroke-miterlimit:10;"/><line style="stroke:#181818;stroke-width:1;" x1="441.2729" x2="585.3945" y1="280.3906" y2="280.3906"/><text fill="#000000" font-family="sans-serif" font-size="13" lengthAdjust="spacing" textLength="126.1216" x="448.2729" y="275.3247">Encaminha request</text></g><g class="message" data-entity-1="part4" data-entity-2="part4" data-source-line="15" id="msg5"><line style="stroke:#181818;stroke-width:1;" x1="591.3945" x2="633.3945" y1="324.6563" y2="324.6563"/><line style="stroke:#181818;stroke-width:1;" x1="633.3945" x2="633.3945" y1="324.6563" y2="337.6563"/><line style="stroke:#181818;stroke-width:1;" x1="592.3945" x2="633.3945" y1="337.6563" y2="337.6563"/><polygon fill="#181818" points="602.3945,333.6563,592.3945,337.6563,602.3945,341.6563,598.3945,337.6563" style="stroke:#181818;stroke-width:1;stroke-linejoin:miter;stroke-miterlimit:10;"/><text fill="#000000" font-family="sans-serif" font-size="13" lengthAdjust="spacing" textLength="137.3696" x="598.3945" y="304.4575">Valida regras RN01.x</text><text fill="#000000" font-family="sans-serif" font-size="13" lengthAdjust="spacing" textLength="183.8979" x="598.3945" y="319.5903">(valor, descricao, data, tipo)</text></g><path d="M9,352.6563 L73.4429,352.6563 L73.4429,359.7891 L63.4429,369.7891 L9,369.7891 L9,352.6563" fill="#EEEEEE" style="stroke:#000000;stroke-width:1.5;"/><rect fill="none" height="335.2656" style="stroke:#000000;stroke-width:1.5;" width="1215.6597" x="9" y="352.6563"/><text fill="#000000" font-family="sans-serif" font-size="13" font-weight="700" lengthAdjust="spacing" textLength="19.4429" x="24" y="365.7231">alt</text><text fill="#000000" font-family="sans-serif" font-size="11" font-weight="700" lengthAdjust="spacing" textLength="108.1309" x="88.4429" y="364.8667">[Dados invalidos]</text><g class="message" data-entity-1="part4" data-entity-2="part3" data-source-line="17" id="msg6"><polygon fill="#181818" points="452.2729,386.9219,442.2729,390.9219,452.2729,394.9219,448.2729,390.9219" style="stroke:#181818;stroke-width:1;stroke-linejoin:miter;stroke-miterlimit:10;"/><line style="stroke:#181818;stroke-width:1;stroke-dasharray:2,2;" x1="446.2729" x2="590.3945" y1="390.9219" y2="390.9219"/><text fill="#000000" font-family="sans-serif" font-size="13" lengthAdjust="spacing" textLength="111.6045" x="458.2729" y="385.856">400 Bad Request</text></g><g class="message" data-entity-1="part3" data-entity-2="part2" data-source-line="18" id="msg7"><polygon fill="#181818" points="277.6304,416.0547,267.6304,420.0547,277.6304,424.0547,273.6304,420.0547" style="stroke:#181818;stroke-width:1;stroke-linejoin:miter;stroke-miterlimit:10;"/><line style="stroke:#181818;stroke-width:1;stroke-dasharray:2,2;" x1="271.6304" x2="440.2729" y1="420.0547" y2="420.0547"/><text fill="#000000" font-family="sans-serif" font-size="13" lengthAdjust="spacing" textLength="113.5405" x="283.6304" y="414.9888">Erro de validacao</text></g><line style="stroke:#000000;stroke-width:1;stroke-dasharray:2,2;" x1="9" x2="1224.6597" y1="429.0547" y2="429.0547"/><text fill="#000000" font-family="sans-serif" font-size="11" font-weight="700" lengthAdjust="spacing" textLength="96.5293" x="14" y="439.2651">[Dados validos]</text><g class="message" data-entity-1="part4" data-entity-2="part5" data-source-line="20" id="msg8"><polygon fill="#181818" points="777.2925,459.9922,787.2925,463.9922,777.2925,467.9922,781.2925,463.9922" style="stroke:#181818;stroke-width:1;stroke-linejoin:miter;stroke-miterlimit:10;"/><line style="stroke:#181818;stroke-width:1;" x1="591.3945" x2="783.2925" y1="463.9922" y2="463.9922"/><text fill="#000000" font-family="sans-serif" font-size="13" lengthAdjust="spacing" textLength="128.0132" x="598.3945" y="458.9263">INSERT lancamento</text></g><g class="message" data-entity-1="part5" data-entity-2="part4" data-source-line="21" id="msg9"><polygon fill="#181818" points="602.3945,489.125,592.3945,493.125,602.3945,497.125,598.3945,493.125" style="stroke:#181818;stroke-width:1;stroke-linejoin:miter;stroke-miterlimit:10;"/><line style="stroke:#181818;stroke-width:1;stroke-dasharray:2,2;" x1="596.3945" x2="788.2925" y1="493.125" y2="493.125"/><text fill="#000000" font-family="sans-serif" font-size="13" lengthAdjust="spacing" textLength="73.9565" x="608.3945" y="488.0591">Commit OK</text></g><g class="message" data-entity-1="part4" data-entity-2="part6" data-source-line="22" id="msg10"><polygon fill="#181818" points="953.2637,518.2578,963.2637,522.2578,953.2637,526.2578,957.2637,522.2578" style="stroke:#181818;stroke-width:1;stroke-linejoin:miter;stroke-miterlimit:10;"/><line style="stroke:#181818;stroke-width:1;" x1="591.3945" x2="959.2637" y1="522.2578" y2="522.2578"/><text fill="#000000" font-family="sans-serif" font-size="13" lengthAdjust="spacing" textLength="210.7612" x="598.3945" y="517.1919">Publica LancamentoCriadoEvent</text></g><path d="M970,535.2578 L970,560.2578 L1214,560.2578 L1214,545.2578 L1204,535.2578 L970,535.2578" fill="#FEFFDD" style="stroke:#181818;stroke-width:0.5;"/><path d="M1204,535.2578 L1204,545.2578 L1214,545.2578 L1204,535.2578" fill="#FEFFDD" style="stroke:#181818;stroke-width:0.5;"/><text fill="#000000" font-family="sans-serif" font-size="13" lengthAdjust="spacing" textLength="223.6597" x="976" y="552.3247">RN03.1 - evento apos persistencia</text><g class="message" data-entity-1="part4" data-entity-2="part3" data-source-line="24" id="msg11"><polygon fill="#181818" points="452.2729,582.5234,442.2729,586.5234,452.2729,590.5234,448.2729,586.5234" style="stroke:#181818;stroke-width:1;stroke-linejoin:miter;stroke-miterlimit:10;"/><line style="stroke:#181818;stroke-width:1;stroke-dasharray:2,2;" x1="446.2729" x2="590.3945" y1="586.5234" y2="586.5234"/><text fill="#000000" font-family="sans-serif" font-size="13" lengthAdjust="spacing" textLength="80.6787" x="458.2729" y="581.4575">201 Created</text></g><g class="message" data-entity-1="part3" data-entity-2="part2" data-source-line="25" id="msg12"><polygon fill="#181818" points="277.6304,611.6563,267.6304,615.6563,277.6304,619.6563,273.6304,615.6563" style="stroke:#181818;stroke-width:1;stroke-linejoin:miter;stroke-miterlimit:10;"/><line style="stroke:#181818;stroke-width:1;stroke-dasharray:2,2;" x1="271.6304" x2="440.2729" y1="615.6563" y2="615.6563"/><text fill="#000000" font-family="sans-serif" font-size="13" lengthAdjust="spacing" textLength="53.1362" x="283.6304" y="610.5903">Sucesso</text></g><g class="message" data-entity-1="part2" data-entity-2="part1" data-source-line="26" id="msg13"><polygon fill="#181818" points="97.7446,640.7891,87.7446,644.7891,97.7446,648.7891,93.7446,644.7891" style="stroke:#181818;stroke-width:1;stroke-linejoin:miter;stroke-miterlimit:10;"/><line style="stroke:#181818;stroke-width:1;stroke-dasharray:2,2;" x1="91.7446" x2="265.6304" y1="644.7891" y2="644.7891"/><text fill="#000000" font-family="sans-serif" font-size="13" lengthAdjust="spacing" textLength="143.7998" x="103.7446" y="639.7231">Confirmacao imediata</text></g><path d="M19,657.7891 L19,682.7891 L1032,682.7891 L1032,667.7891 L1022,657.7891 L19,657.7891" fill="#FEFFDD" style="stroke:#181818;stroke-width:0.5;"/><path d="M1022,657.7891 L1022,667.7891 L1032,667.7891 L1022,657.7891" fill="#FEFFDD" style="stroke:#181818;stroke-width:0.5;"/><text fill="#000000" font-family="sans-serif" font-size="13" lengthAdjust="spacing" textLength="316.875" x="362.8108" y="674.856">Consolidacao ocorre de forma assincrona (RF04)</text><?plantuml-src TLDDSnen3BtxLsXoIgOGeCc9GsRAHp9fCmbXcUR2HNW5U6Qnjh8XRNzzjMkINTgKYrdxINfwUeek5WJps_u0FbN75NHXJXiNeg10WTxYZdna82Ztgy9PlQL3TMCCsiW2OzwHM8S-aYbHehEkr0yuknNMOrJWRvOpm03rnIdco-mUxZ3IA_wg8Vfzz_8lvE6THqYmqbLN9iU8AmoagBsm8FHWnY5kXBBdXnev6PaVUzeh8dlEMlrqhJZCkSReYp6jDg1xaxWEOIP4tcu9h53k8lToMkbXKc-AgmahxYbRG0zBrsjAXAKV4Ge9V7rPc1hOYlYEXSknUb9fW-MIbhuLEtmLfu8sKQdZ8KmhYFDR127jB4HZZcydi6DweOreX_F7_k3ovzAV7x1WwK1EGVktoFfN9Un0T2LV62mYJ5IL0CuVgWGS3EZllK13_xhVXn7cwfL4eeObierwKn7MMb3dGYrdgD1XfH8V5hZHWGtX_Z6RpXUjQTMWoIWHU6jH9xPp4Pw-_Pr2vwaJIMvjMMTSJtnQcRUEyAoZ5hVPHk1r2bAThYu7kWB9ue2b4Yr9Wkw3-i3X_-JuhFip5b8dvnzBaUqjXP0QEPf77rkcg_hnQoUxIYTmExMRJgOXoWSwsRLEOgn1WO_g0biMeKhnDMiYzNPmtcerX7FTxUiBGputVm00?></g></svg>