<svg xmlns="http://www.w3.org/2000/svg" xmlns:xlink="http://www.w3.org/1999/xlink" contentStyleType="text/css" data-diagram-type="ACTIVITY" height="512px" preserveAspectRatio="none" style="width:350px;height:512px;background:#FFFFFF;" version="1.1" viewBox="0 0 350 512" width="350px" zoomAndPan="magnify"><?plantuml 1.2026.6?><defs/><g><g class="title" data-source-line="1"><text fill="#000000" font-family="sans-serif" font-size="14" font-weight="700" lengthAdjust="spacing" textLength="249.9766" x="49.3223" y="32.9951">Migracao Strangler Fig - Etapas</text></g><ellipse cx="173.3105" cy="62.2969" fill="#222222" rx="10" ry="10" style="stroke:#222222;stroke-width:1;"/><rect fill="#F1F1F1" height="33.9688" rx="12.5" ry="12.5" style="stroke:#181818;stroke-width:0.5;" width="214.1387" x="66.2412" y="92.2969"/><text fill="#000000" font-family="sans-serif" font-size="12" lengthAdjust="spacing" textLength="194.1387" x="76.2412" y="113.4355">1. Sistema Legado em Producao</text><rect fill="#F1F1F1" height="33.9688" rx="12.5" ry="12.5" style="stroke:#181818;stroke-width:0.5;" width="287.2637" x="29.6787" y="146.2656"/><text fill="#000000" font-family="sans-serif" font-size="12" lengthAdjust="spacing" textLength="267.2637" x="39.6787" y="167.4043">2. Criar Novo Front Blazor (S3 + CloudFront)</text><rect fill="#F1F1F1" height="33.9688" rx="12.5" ry="12.5" style="stroke:#181818;stroke-width:0.5;" width="167.8906" x="89.3652" y="200.2344"/><text fill="#000000" font-family="sans-serif" font-size="12" lengthAdjust="spacing" textLength="147.8906" x="99.3652" y="221.373">3. Integrar Cognito OIDC</text><rect fill="#F1F1F1" height="33.9688" rx="12.5" ry="12.5" style="stroke:#181818;stroke-width:0.5;" width="314.6211" x="16" y="254.2031"/><text fill="#000000" font-family="sans-serif" font-size="12" lengthAdjust="spacing" textLength="294.6211" x="26" y="275.3418">4. Criar APIs Serverless (API Gateway + Lambda)</text><rect fill="#F1F1F1" height="33.9688" rx="12.5" ry="12.5" style="stroke:#181818;stroke-width:0.5;" width="269.7559" x="38.4326" y="308.1719"/><text fill="#000000" font-family="sans-serif" font-size="12" lengthAdjust="spacing" textLength="249.7559" x="48.4326" y="329.3105">5. Redirecionar funcionalidades migradas</text><rect fill="#F1F1F1" height="33.9688" rx="12.5" ry="12.5" style="stroke:#181818;stroke-width:0.5;" width="300.9453" x="22.8379" y="362.1406"/><text fill="#000000" font-family="sans-serif" font-size="12" lengthAdjust="spacing" textLength="280.9453" x="32.8379" y="383.2793">6. Expandir novo sistema e estrangular legado</text><rect fill="#F1F1F1" height="33.9688" rx="12.5" ry="12.5" style="stroke:#181818;stroke-width:0.5;" width="143.6797" x="101.4707" y="416.1094"/><text fill="#000000" font-family="sans-serif" font-size="12" lengthAdjust="spacing" textLength="123.6797" x="111.4707" y="437.248">7. Desligar o Legado</text><ellipse cx="173.3105" cy="481.0781" fill="none" rx="11" ry="11" style="stroke:#222222;stroke-width:1;"/><ellipse cx="173.3105" cy="481.0781" fill="#222222" rx="6" ry="6" style="stroke:#222222;stroke-width:1;"/><line style="stroke:#181818;stroke-width:1;" x1="173.3105" x2="173.3105" y1="72.2969" y2="92.2969"/><polygon fill="#181818" points="169.3105,82.2969,173.3105,92.2969,177.3105,82.2969,173.3105,86.2969" style="stroke:#181818;stroke-width:1;stroke-linejoin:miter;stroke-miterlimit:10;"/><line style="stroke:#181818;stroke-width:1;" x1="173.3105" x2="173.3105" y1="126.2656" y2="146.2656"/><polygon fill="#181818" points="169.3105,136.2656,173.3105,146.2656,177.3105,136.2656,173.3105,140.2656" style="stroke:#181818;stroke-width:1;stroke-linejoin:miter;stroke-miterlimit:10;"/><line style="stroke:#181818;stroke-width:1;" x1="173.3105" x2="173.3105" y1="180.2344" y2="200.2344"/><polygon fill="#181818" points="169.3105,190.2344,173.3105,200.2344,177.3105,190.2344,173.3105,194.2344" style="stroke:#181818;stroke-width:1;stroke-linejoin:miter;stroke-miterlimit:10;"/><line style="stroke:#181818;stroke-width:1;" x1="173.3105" x2="173.3105" y1="234.2031" y2="254.2031"/><polygon fill="#181818" points="169.3105,244.2031,173.3105,254.2031,177.3105,244.2031,173.3105,248.2031" style="stroke:#181818;stroke-width:1;stroke-linejoin:miter;stroke-miterlimit:10;"/><line style="stroke:#181818;stroke-width:1;" x1="173.3105" x2="173.3105" y1="288.1719" y2="308.1719"/><polygon fill="#181818" points="169.3105,298.1719,173.3105,308.1719,177.3105,298.1719,173.3105,302.1719" style="stroke:#181818;stroke-width:1;stroke-linejoin:miter;stroke-miterlimit:10;"/><line style="stroke:#181818;stroke-width:1;" x1="173.3105" x2="173.3105" y1="342.1406" y2="362.1406"/><polygon fill="#181818" points="169.3105,352.1406,173.3105,362.1406,177.3105,352.1406,173.3105,356.1406" style="stroke:#181818;stroke-width:1;stroke-linejoin:miter;stroke-miterlimit:10;"/><line style="stroke:#181818;stroke-width:1;" x1="173.3105" x2="173.3105" y1="396.1094" y2="416.1094"/><polygon fill="#181818" points="169.3105,406.1094,173.3105,416.1094,177.3105,406.1094,173.3105,410.1094" style="stroke:#181818;stroke-width:1;stroke-linejoin:miter;stroke-miterlimit:10;"/><line style="stroke:#181818;stroke-width:1;" x1="173.3105" x2="173.3105" y1="450.0781" y2="470.0781"/><polygon fill="#181818" points="169.3105,460.0781,173.3105,470.0781,177.3105,460.0781,173.3105,464.0781" style="stroke:#181818;stroke-width:1;stroke-linejoin:miter;stroke-miterlimit:10;"/><?plantuml-src DP3DJiD038JlUOev5Y62eFn8xGdI5aKg494dC5qtMccphhoRygC-F4vKRjPu_DdZx7DWlFfEQKU2DYl5Bh1YupjSOPtfGAaeJfNqh3jFCJEkqGJAj1VjwLIaJ9gBnKs9rgVCFM7B7Ja1zsXKt63SPR6uBL6f9yMR70KRbPZn7EXN5BDsZajKGGOtwHTcdvUeRPUTfQYaYpuBtkjLPQsxVz9JKoUqh4VMm2bXPW9UAFCN_HXmI_sden5sN-A3dLVUUOask1_YL0Nlo752FyPtbCpwK6BzVQ1eRiJnqdGEnU0qFMS8HWXJHFC_bbXn2hupKSx9b_OJEHH_?></g></svg>