<svg xmlns="http://www.w3.org/2000/svg" xmlns:xlink="http://www.w3.org/1999/xlink" contentStyleType="text/css" data-diagram-type="SEQUENCE" height="761px" preserveAspectRatio="none" style="width:1046px;height:761px;background:#FFFFFF;" version="1.1" viewBox="0 0 1046 761" width="1046px" zoomAndPan="magnify"><?plantuml 1.2026.6?><defs/><g><g class="title" data-source-line="1"><text fill="#000000" font-family="sans-serif" font-size="14" font-weight="700" lengthAdjust="spacing" textLength="306.9131" x="366.1384" y="27.9951">RF10 - Enforcement RBAC em camadas</text></g><rect fill="none" height="468.6016" style="stroke:#000000;stroke-width:1.5;" width="1020.1899" x="10" y="193.8594"/><rect fill="none" height="307.1328" style="stroke:#000000;stroke-width:1.5;" width="1000.1899" x="20" y="348.3281"/><g class="participant-lifeline" data-entity-uid="part1" data-qualified-name="Cliente" data-source-line="3" id="part1-lifeline"><g><title>Cliente</title><rect fill="#000000" fill-opacity="0.00000" height="560.8672" width="8" x="53.5718" y="118.5938"/><line style="stroke:#181818;stroke-width:0.5;stroke-dasharray:5,5;" x1="57" x2="57" y1="118.5938" y2="679.4609"/></g></g><g class="participant-lifeline" data-entity-uid="part2" data-qualified-name="APIGW" data-source-line="4" id="part2-lifeline"><g><title>API Gateway</title><rect fill="#000000" fill-opacity="0.00000" height="560.8672" width="8" x="268.3315" y="118.5938"/><line style="stroke:#181818;stroke-width:0.5;stroke-dasharray:5,5;" x1="272.1099" x2="272.1099" y1="118.5938" y2="679.4609"/></g></g><g class="participant-lifeline" data-entity-uid="part3" data-qualified-name="JWKS" data-source-line="5" id="part3-lifeline"><g><title>Cognito JWKS</title><rect fill="#000000" fill-opacity="0.00000" height="560.8672" width="8" x="444.9482" y="118.5938"/><line style="stroke:#181818;stroke-width:0.5;stroke-dasharray:5,5;" x1="448.6812" x2="448.6812" y1="118.5938" y2="679.4609"/></g></g><g class="participant-lifeline" data-entity-uid="part4" data-qualified-name="API" data-source-line="6" id="part4-lifeline"><g><title>API .NET</title><rect fill="#000000" fill-opacity="0.00000" height="560.8672" width="8" x="545.6748" y="118.5938"/><line style="stroke:#181818;stroke-width:0.5;stroke-dasharray:5,5;" x1="549.2153" x2="549.2153" y1="118.5938" y2="679.4609"/></g></g><g class="participant-lifeline" data-entity-uid="part5" data-qualified-name="Repo" data-source-line="7" id="part5-lifeline"><g><title>Repository</title><rect fill="#000000" fill-opacity="0.00000" height="560.8672" width="8" x="737.8027" y="118.5938"/><line style="stroke:#181818;stroke-width:0.5;stroke-dasharray:5,5;" x1="741.2666" x2="741.2666" y1="118.5938" y2="679.4609"/></g></g><g class="participant-lifeline" data-entity-uid="part6" data-qualified-name="DB" data-source-line="8" id="part6-lifeline"><g><title>Aurora . Redis</title><rect fill="#000000" fill-opacity="0.00000" height="560.8672" width="8" x="953.6226" y="118.5938"/><line style="stroke:#181818;stroke-width:0.5;stroke-dasharray:5,5;" x1="957.0552" x2="957.0552" y1="118.5938" y2="679.4609"/></g></g><g class="participant participant-head" data-entity-uid="part1" data-qualified-name="Cliente" data-source-line="3" id="part1-head"><text fill="#000000" font-family="sans-serif" font-size="14" lengthAdjust="spacing" textLength="49.1436" x="30" y="115.292">Cliente</text><ellipse cx="57.5718" cy="50.7969" fill="#E2E2F0" rx="8" ry="8" style="stroke:#181818;stroke-width:0.5;"/><path d="M57.5718,58.7969 L57.5718,85.7969 M44.5718,66.7969 L70.5718,66.7969 M57.5718,85.7969 L44.5718,100.7969 M57.5718,85.7969 L70.5718,100.7969" fill="none" style="stroke:#181818;stroke-width:0.5;"/></g><g class="participant participant-tail" data-entity-uid="part1" data-qualified-name="Cliente" data-source-line="3" id="part1-tail"><text fill="#000000" font-family="sans-serif" font-size="14" lengthAdjust="spacing" textLength="49.1436" x="30" y="691.4561">Cliente</text><ellipse cx="57.5718" cy="703.2578" fill="#E2E2F0" rx="8" ry="8" style="stroke:#181818;stroke-width:0.5;"/><path d="M57.5718,711.2578 L57.5718,738.2578 M44.5718,719.2578 L70.5718,719.2578 M57.5718,738.2578 L44.5718,753.2578 M57.5718,738.2578 L70.5718,753.2578" fill="none" style="stroke:#181818;stroke-width:0.5;"/></g><g class="participant participant-head" data-entity-uid="part2" data-qualified-name="APIGW" data-source-line="4" id="part2-head"><rect fill="#E2E2F0" height="30.2969" rx="2.5" ry="2.5" style="stroke:#181818;stroke-width:0.5;" width="102.4434" x="221.1099" y="87.2969"/><text fill="#000000" font-family="sans-serif" font-size="14" lengthAdjust="spacing" textLength="88.4434" x="228.1099" y="107.292">API Gateway</text></g><g class="participant participant-tail" data-entity-uid="part2" data-qualified-name="APIGW" data-source-line="4" id="part2-tail"><rect fill="#E2E2F0" height="30.2969" rx="2.5" ry="2.5" style="stroke:#181818;stroke-width:0.5;" width="102.4434" x="221.1099" y="678.4609"/><text fill="#000000" font-family="sans-serif" font-size="14" lengthAdjust="spacing" textLength="88.4434" x="228.1099" y="698.4561">API Gateway</text></g><g class="participant participant-head" data-entity-uid="part3" data-qualified-name="JWKS" data-source-line="5" id="part3-head"><rect fill="#E2E2F0" height="30.2969" rx="2.5" ry="2.5" style="stroke:#181818;stroke-width:0.5;" width="108.5342" x="394.6812" y="87.2969"/><text fill="#000000" font-family="sans-serif" font-size="14" lengthAdjust="spacing" textLength="94.5342" x="401.6812" y="107.292">Cognito JWKS</text></g><g class="participant participant-tail" data-entity-uid="part3" data-qualified-name="JWKS" data-source-line="5" id="part3-tail"><rect fill="#E2E2F0" height="30.2969" rx="2.5" ry="2.5" style="stroke:#181818;stroke-width:0.5;" width="108.5342" x="394.6812" y="678.4609"/><text fill="#000000" font-family="sans-serif" font-size="14" lengthAdjust="spacing" textLength="94.5342" x="401.6812" y="698.4561">Cognito JWKS</text></g><g class="participant participant-head" data-entity-uid="part4" data-qualified-name="API" data-source-line="6" id="part4-head"><rect fill="#E2E2F0" height="30.2969" rx="2.5" ry="2.5" style="stroke:#181818;stroke-width:0.5;" width="72.9189" x="513.2153" y="87.2969"/><text fill="#000000" font-family="sans-serif" font-size="14" lengthAdjust="spacing" textLength="58.9189" x="520.2153" y="107.292">API .NET</text></g><g class="participant participant-tail" data-entity-uid="part4" data-qualified-name="API" data-source-line="6" id="part4-tail"><rect fill="#E2E2F0" height="30.2969" rx="2.5" ry="2.5" style="stroke:#181818;stroke-width:0.5;" width="72.9189" x="513.2153" y="678.4609"/><text fill="#000000" font-family="sans-serif" font-size="14" lengthAdjust="spacing" textLength="58.9189" x="520.2153" y="698.4561">API .NET</text></g><g class="participant participant-head" data-entity-uid="part5" data-qualified-name="Repo" data-source-line="7" id="part5-head"><rect fill="#E2E2F0" height="30.2969" rx="2.5" ry="2.5" style="stroke:#181818;stroke-width:0.5;" width="89.0723" x="697.2666" y="87.2969"/><text fill="#000000" font-family="sans-serif" font-size="14" lengthAdjust="spacing" textLength="75.0723" x="704.2666" y="107.292">Repository</text></g><g class="participant participant-tail" data-entity-uid="part5" data-qualified-name="Repo" data-source-line="7" id="part5-tail"><rect fill="#E2E2F0" height="30.2969" rx="2.5" ry="2.5" style="stroke:#181818;stroke-width:0.5;" width="89.0723" x="697.2666" y="678.4609"/><text fill="#000000" font-family="sans-serif" font-size="14" lengthAdjust="spacing" textLength="75.0723" x="704.2666" y="698.4561">Repository</text></g><g class="participant participant-head" data-entity-uid="part6" data-qualified-name="DB" data-source-line="8" id="part6-head"><text fill="#000000" font-family="sans-serif" font-size="14" lengthAdjust="spacing" textLength="99.1348" x="905.0552" y="115.292">Aurora / Redis</text><path d="M939.6226,66.2969 C939.6226,56.2969 957.6226,56.2969 957.6226,56.2969 C957.6226,56.2969 975.6226,56.2969 975.6226,66.2969 L975.6226,92.2969 C975.6226,102.2969 957.6226,102.2969 957.6226,102.2969 C957.6226,102.2969 939.6226,102.2969 939.6226,92.2969 L939.6226,66.2969" fill="#E2E2F0" style="stroke:#181818;stroke-width:0.5;"/><path d="M939.6226,66.2969 C939.6226,76.2969 957.6226,76.2969 957.6226,76.2969 C957.6226,76.2969 975.6226,76.2969 975.6226,66.2969" fill="none" style="stroke:#181818;stroke-width:0.5;"/></g><g class="participant participant-tail" data-entity-uid="part6" data-qualified-name="DB" data-source-line="8" id="part6-tail"><text fill="#000000" font-family="sans-serif" font-size="14" lengthAdjust="spacing" textLength="99.1348" x="905.0552" y="691.4561">Aurora / Redis</text><path d="M939.6226,704.7578 C939.6226,694.7578 957.6226,694.7578 957.6226,694.7578 C957.6226,694.7578 975.6226,694.7578 975.6226,704.7578 L975.6226,730.7578 C975.6226,740.7578 957.6226,740.7578 957.6226,740.7578 C957.6226,740.7578 939.6226,740.7578 939.6226,730.7578 L939.6226,704.7578" fill="#E2E2F0" style="stroke:#181818;stroke-width:0.5;"/><path d="M939.6226,704.7578 C939.6226,714.7578 957.6226,714.7578 957.6226,714.7578 C957.6226,714.7578 975.6226,714.7578 975.6226,704.7578" fill="none" style="stroke:#181818;stroke-width:0.5;"/></g><g class="message" data-entity-1="part1" data-entity-2="part2" data-source-line="10" id="msg1"><polygon fill="#181818" points="260.3315,145.7266,270.3315,149.7266,260.3315,153.7266,264.3315,149.7266" style="stroke:#181818;stroke-width:1;stroke-linejoin:miter;stroke-miterlimit:10;"/><line style="stroke:#181818;stroke-width:1;" x1="57.5718" x2="266.3315" y1="149.7266" y2="149.7266"/><text fill="#000000" font-family="sans-serif" font-size="13" lengthAdjust="spacing" textLength="190.7598" x="64.5718" y="144.6606">Request HTTPS + Bearer JWT</text></g><g class="message" data-entity-1="part2" data-entity-2="part3" data-source-line="11" id="msg2"><polygon fill="#181818" points="436.9482,174.8594,446.9482,178.8594,436.9482,182.8594,440.9482,178.8594" style="stroke:#181818;stroke-width:1;stroke-linejoin:miter;stroke-miterlimit:10;"/><line style="stroke:#181818;stroke-width:1;" x1="272.3315" x2="442.9482" y1="178.8594" y2="178.8594"/><text fill="#000000" font-family="sans-serif" font-size="13" lengthAdjust="spacing" textLength="152.6167" x="279.3315" y="173.7935">Valida assinatura e exp</text></g><path d="M10,193.8594 L74.4429,193.8594 L74.4429,200.9922 L64.4429,210.9922 L10,210.9922 L10,193.8594" fill="#EEEEEE" style="stroke:#000000;stroke-width:1.5;"/><rect fill="none" height="468.6016" style="stroke:#000000;stroke-width:1.5;" width="1020.1899" x="10" y="193.8594"/><text fill="#000000" font-family="sans-serif" font-size="13" font-weight="700" lengthAdjust="spacing" textLength="19.4429" x="25" y="206.9263">alt</text><text fill="#000000" font-family="sans-serif" font-size="11" font-weight="700" lengthAdjust="spacing" textLength="100.7188" x="89.4429" y="206.0698">[Token invalido]</text><g class="message" data-entity-1="part2" data-entity-2="part1" data-source-line="13" id="msg3"><polygon fill="#181818" points="68.5718,228.125,58.5718,232.125,68.5718,236.125,64.5718,232.125" style="stroke:#181818;stroke-width:1;stroke-linejoin:miter;stroke-miterlimit:10;"/><line style="stroke:#181818;stroke-width:1;stroke-dasharray:2,2;" x1="62.5718" x2="271.3315" y1="232.125" y2="232.125"/><text fill="#000000" font-family="sans-serif" font-size="13" lengthAdjust="spacing" textLength="116.2256" x="74.5718" y="227.0591">401 Unauthorized</text></g><line style="stroke:#000000;stroke-width:1;stroke-dasharray:2,2;" x1="10" x2="1030.1899" y1="241.125" y2="241.125"/><text fill="#000000" font-family="sans-serif" font-size="11" font-weight="700" lengthAdjust="spacing" textLength="89.1172" x="15" y="251.3354">[Token valido]</text><g class="message" data-entity-1="part2" data-entity-2="part4" data-source-line="15" id="msg4"><polygon fill="#181818" points="537.6748,272.0625,547.6748,276.0625,537.6748,280.0625,541.6748,276.0625" style="stroke:#181818;stroke-width:1;stroke-linejoin:miter;stroke-miterlimit:10;"/><line style="stroke:#181818;stroke-width:1;" x1="272.3315" x2="543.6748" y1="276.0625" y2="276.0625"/><text fill="#000000" font-family="sans-serif" font-size="13" lengthAdjust="spacing" textLength="133.2183" x="279.3315" y="270.9966">Encaminha + claims</text></g><g class="message" data-entity-1="part4" data-entity-2="part4" data-source-line="16" id="msg5"><line style="stroke:#181818;stroke-width:1;" x1="549.6748" x2="591.6748" y1="320.3281" y2="320.3281"/><line style="stroke:#181818;stroke-width:1;" x1="591.6748" x2="591.6748" y1="320.3281" y2="333.3281"/><line style="stroke:#181818;stroke-width:1;" x1="550.6748" x2="591.6748" y1="333.3281" y2="333.3281"/><polygon fill="#181818" points="560.6748,329.3281,550.6748,333.3281,560.6748,337.3281,556.6748,333.3281" style="stroke:#181818;stroke-width:1;stroke-linejoin:miter;stroke-miterlimit:10;"/><text fill="#000000" font-family="sans-serif" font-size="13" lengthAdjust="spacing" textLength="129.0605" x="556.6748" y="300.1294">Authorization Policy</text><text fill="#000000" font-family="sans-serif" font-size="13" lengthAdjust="spacing" textLength="160.7544" x="556.6748" y="315.2622">(cognito:groups, scopes)</text></g><path d="M20,348.3281 L84.4429,348.3281 L84.4429,355.4609 L74.4429,365.4609 L20,365.4609 L20,348.3281" fill="#EEEEEE" style="stroke:#000000;stroke-width:1.5;"/><rect fill="none" height="307.1328" style="stroke:#000000;stroke-width:1.5;" width="1000.1899" x="20" y="348.3281"/><text fill="#000000" font-family="sans-serif" font-size="13" font-weight="700" lengthAdjust="spacing" textLength="19.4429" x="35" y="361.395">alt</text><text fill="#000000" font-family="sans-serif" font-size="11" font-weight="700" lengthAdjust="spacing" textLength="104.7954" x="99.4429" y="360.5386">[Sem permissao]</text><g class="message" data-entity-1="part4" data-entity-2="part2" data-source-line="18" id="msg6"><polygon fill="#181818" points="283.3315,382.5938,273.3315,386.5938,283.3315,390.5938,279.3315,386.5938" style="stroke:#181818;stroke-width:1;stroke-linejoin:miter;stroke-miterlimit:10;"/><line style="stroke:#181818;stroke-width:1;stroke-dasharray:2,2;" x1="277.3315" x2="548.6748" y1="386.5938" y2="386.5938"/><text fill="#000000" font-family="sans-serif" font-size="13" lengthAdjust="spacing" textLength="94.3262" x="289.3315" y="381.5278">403 Forbidden</text></g><g class="message" data-entity-1="part2" data-entity-2="part1" data-source-line="19" id="msg7"><polygon fill="#181818" points="68.5718,411.7266,58.5718,415.7266,68.5718,419.7266,64.5718,415.7266" style="stroke:#181818;stroke-width:1;stroke-linejoin:miter;stroke-miterlimit:10;"/><line style="stroke:#181818;stroke-width:1;stroke-dasharray:2,2;" x1="62.5718" x2="271.3315" y1="415.7266" y2="415.7266"/><text fill="#000000" font-family="sans-serif" font-size="13" lengthAdjust="spacing" textLength="24.813" x="74.5718" y="410.6606">403</text></g><line style="stroke:#000000;stroke-width:1;stroke-dasharray:2,2;" x1="20" x2="1020.1899" y1="424.7266" y2="424.7266"/><text fill="#000000" font-family="sans-serif" font-size="11" font-weight="700" lengthAdjust="spacing" textLength="77.666" x="25" y="434.937">[Autorizado]</text><g class="message" data-entity-1="part4" data-entity-2="part4" data-source-line="21" id="msg8"><line style="stroke:#181818;stroke-width:1;" x1="549.6748" x2="591.6748" y1="459.6641" y2="459.6641"/><line style="stroke:#181818;stroke-width:1;" x1="591.6748" x2="591.6748" y1="459.6641" y2="472.6641"/><line style="stroke:#181818;stroke-width:1;" x1="550.6748" x2="591.6748" y1="472.6641" y2="472.6641"/><polygon fill="#181818" points="560.6748,468.6641,550.6748,472.6641,560.6748,476.6641,556.6748,472.6641" style="stroke:#181818;stroke-width:1;stroke-linejoin:miter;stroke-miterlimit:10;"/><text fill="#000000" font-family="sans-serif" font-size="13" lengthAdjust="spacing" textLength="178.1279" x="556.6748" y="454.5981">Extrai merchantId do token</text></g><g class="message" data-entity-1="part4" data-entity-2="part5" data-source-line="22" id="msg9"><polygon fill="#181818" points="729.8027,497.7969,739.8027,501.7969,729.8027,505.7969,733.8027,501.7969" style="stroke:#181818;stroke-width:1;stroke-linejoin:miter;stroke-miterlimit:10;"/><line style="stroke:#181818;stroke-width:1;" x1="549.6748" x2="735.8027" y1="501.7969" y2="501.7969"/><text fill="#000000" font-family="sans-serif" font-size="13" lengthAdjust="spacing" textLength="152.5024" x="556.6748" y="496.731">Query com filtro tenant</text></g><g class="message" data-entity-1="part5" data-entity-2="part6" data-source-line="23" id="msg10"><polygon fill="#181818" points="945.6226,526.9297,955.6226,530.9297,945.6226,534.9297,949.6226,530.9297" style="stroke:#181818;stroke-width:1;stroke-linejoin:miter;stroke-miterlimit:10;"/><line style="stroke:#181818;stroke-width:1;" x1="741.8027" x2="951.6226" y1="530.9297" y2="530.9297"/><text fill="#000000" font-family="sans-serif" font-size="13" lengthAdjust="spacing" textLength="191.8198" x="748.8027" y="525.8638">WHERE merchant_id = :claim</text></g><g class="message" data-entity-1="part6" data-entity-2="part5" data-source-line="24" id="msg11"><polygon fill="#181818" points="752.8027,556.0625,742.8027,560.0625,752.8027,564.0625,748.8027,560.0625" style="stroke:#181818;stroke-width:1;stroke-linejoin:miter;stroke-miterlimit:10;"/><line style="stroke:#181818;stroke-width:1;stroke-dasharray:2,2;" x1="746.8027" x2="956.6226" y1="560.0625" y2="560.0625"/><text fill="#000000" font-family="sans-serif" font-size="13" lengthAdjust="spacing" textLength="108.0625" x="758.8027" y="554.9966">Dados do tenant</text></g><g class="message" data-entity-1="part5" data-entity-2="part4" data-source-line="25" id="msg12"><polygon fill="#181818" points="560.6748,585.1953,550.6748,589.1953,560.6748,593.1953,556.6748,589.1953" style="stroke:#181818;stroke-width:1;stroke-linejoin:miter;stroke-miterlimit:10;"/><line style="stroke:#181818;stroke-width:1;stroke-dasharray:2,2;" x1="554.6748" x2="740.8027" y1="589.1953" y2="589.1953"/><text fill="#000000" font-family="sans-serif" font-size="13" lengthAdjust="spacing" textLength="64.9238" x="566.6748" y="584.1294">Resultado</text></g><g class="message" data-entity-1="part4" data-entity-2="part2" data-source-line="26" id="msg13"><polygon fill="#181818" points="283.3315,614.3281,273.3315,618.3281,283.3315,622.3281,279.3315,618.3281" style="stroke:#181818;stroke-width:1;stroke-linejoin:miter;stroke-miterlimit:10;"/><line style="stroke:#181818;stroke-width:1;stroke-dasharray:2,2;" x1="277.3315" x2="548.6748" y1="618.3281" y2="618.3281"/><text fill="#000000" font-family="sans-serif" font-size="13" lengthAdjust="spacing" textLength="62.2705" x="289.3315" y="613.2622">200 / 201</text></g><g class="message" data-entity-1="part2" data-entity-2="part1" data-source-line="27" id="msg14"><polygon fill="#181818" points="68.5718,643.4609,58.5718,647.4609,68.5718,651.4609,64.5718,647.4609" style="stroke:#181818;stroke-width:1;stroke-linejoin:miter;stroke-miterlimit:10;"/><line style="stroke:#181818;stroke-width:1;stroke-dasharray:2,2;" x1="62.5718" x2="271.3315" y1="647.4609" y2="647.4609"/><text fill="#000000" font-family="sans-serif" font-size="13" lengthAdjust="spacing" textLength="59.8457" x="74.5718" y="642.395">Resposta</text></g><?plantuml-src VP9lRzCm4CRV-rESzWe4WtJRgqXCQjhk3qYef65zWuHkzcsrSEnWEx3kqtDsseojY4YHujplddlkpb57Gr1VJ0euXeMzSrvIIpP2NKrdG2r8R55X409bT1vcHdEKH8S-QgaxPFHekho6Iupq6xT7W07uVBb-ZipSlTNHmSVrfrLcqiUXohlFYsOlyJnQK-S2A_YXH3eAXH5lCH3dzjvvXFVyN-cGYNabnCuj79yFdagE_-mfHBXgckKAta15wCcpcqPa8g79MWatQBH2LWhQOknPdO0UEe4cGkD-a0LjVoN62U1dbytfkw8bd1KJ-6gnZnldzICfGOQz3hc7cTbYoJlWYMkxGJOd3UesxA4HcUuKCMfdOUcCbjjlzfKSHbpUUzTtuIq4wJeAhtDwChtYRNRaMnq23fL7uQVvd1MdSE7yhLQAxD_GONEdEPnxOaVPa7gXk-_f8NhKq9AN6rxcjGBb8AOvlCJJMaluqfFVWdGjt6aJFRDaEM-44vNeULN2-cfHBqRfxrh11oZpu4PyNcNhW_QSJOPS_r-QUySrXTx4WtwUvdHI57pRJeh9_sR4Adnf8mw3idm1-Fq3?></g></svg>