<svg xmlns="http://www.w3.org/2000/svg" xmlns:xlink="http://www.w3.org/1999/xlink" contentStyleType="text/css" data-diagram-type="SEQUENCE" height="575px" preserveAspectRatio="none" style="width:883px;height:575px;background:#FFFFFF;" version="1.1" viewBox="0 0 883 575" width="883px" zoomAndPan="magnify"><?plantuml 1.2026.6?><defs/><g><g class="title" data-source-line="1"><text fill="#000000" font-family="sans-serif" font-size="14" font-weight="700" lengthAdjust="spacing" textLength="353.3018" x="261.3813" y="27.9951">RF02 - Consultar lancamentos (especificado)</text></g><g class="participant-lifeline" data-entity-uid="part1" data-qualified-name="User" data-source-line="3" id="part1-lifeline"><g><title>Comerciante</title><rect fill="#000000" fill-opacity="0.00000" height="374.7266" width="8" x="48.7446" y="118.5938"/><line style="stroke:#181818;stroke-width:0.5;stroke-dasharray:5,5;" x1="52" x2="52" y1="118.5938" y2="493.3203"/></g></g><g class="participant-lifeline" data-entity-uid="part2" data-qualified-name="APIGW" data-source-line="4" id="part2-lifeline"><g><title>API Gateway</title><rect fill="#000000" fill-opacity="0.00000" height="374.7266" width="8" x="337.4292" y="118.5938"/><line style="stroke:#181818;stroke-width:0.5;stroke-dasharray:5,5;" x1="341.2075" x2="341.2075" y1="118.5938" y2="493.3203"/></g></g><g class="participant-lifeline" data-entity-uid="part3" data-qualified-name="ApiLanc" data-source-line="5" id="part3-lifeline"><g><title>API Lancamentos</title><rect fill="#000000" fill-opacity="0.00000" height="374.7266" width="8" x="550.8115" y="118.5938"/><line style="stroke:#181818;stroke-width:0.5;stroke-dasharray:5,5;" x1="554.5117" x2="554.5117" y1="118.5938" y2="493.3203"/></g></g><g class="participant-lifeline" data-entity-uid="part4" data-qualified-name="DB" data-source-line="6" id="part4-lifeline"><g><title>Aurora . PostgreSQL</title><rect fill="#000000" fill-opacity="0.00000" height="374.7266" width="8" x="794.3262" y="118.5938"/><line style="stroke:#181818;stroke-width:0.5;stroke-dasharray:5,5;" x1="797.5879" x2="797.5879" y1="118.5938" y2="493.3203"/></g></g><g class="participant participant-head" data-entity-uid="part1" data-qualified-name="User" data-source-line="3" id="part1-head"><text fill="#000000" font-family="sans-serif" font-size="14" lengthAdjust="spacing" textLength="89.4893" x="5" y="115.292">Comerciante</text><ellipse cx="52.7446" cy="50.7969" fill="#E2E2F0" rx="8" ry="8" style="stroke:#181818;stroke-width:0.5;"/><path d="M52.7446,58.7969 L52.7446,85.7969 M39.7446,66.7969 L65.7446,66.7969 M52.7446,85.7969 L39.7446,100.7969 M52.7446,85.7969 L65.7446,100.7969" fill="none" style="stroke:#181818;stroke-width:0.5;"/></g><g class="participant participant-tail" data-entity-uid="part1" data-qualified-name="User" data-source-line="3" id="part1-tail"><text fill="#000000" font-family="sans-serif" font-size="14" lengthAdjust="spacing" textLength="89.4893" x="5" y="505.3154">Comerciante</text><ellipse cx="52.7446" cy="517.1172" fill="#E2E2F0" rx="8" ry="8" style="stroke:#181818;stroke-width:0.5;"/><path d="M52.7446,525.1172 L52.7446,552.1172 M39.7446,533.1172 L65.7446,533.1172 M52.7446,552.1172 L39.7446,567.1172 M52.7446,552.1172 L65.7446,567.1172" fill="none" style="stroke:#181818;stroke-width:0.5;"/></g><g class="participant participant-head" data-entity-uid="part2" data-qualified-name="APIGW" data-source-line="4" id="part2-head"><rect fill="#E2E2F0" height="30.2969" rx="2.5" ry="2.5" style="stroke:#181818;stroke-width:0.5;" width="102.4434" x="290.2075" y="87.2969"/><text fill="#000000" font-family="sans-serif" font-size="14" lengthAdjust="spacing" textLength="88.4434" x="297.2075" y="107.292">API Gateway</text></g><g class="participant participant-tail" data-entity-uid="part2" data-qualified-name="APIGW" data-source-line="4" id="part2-tail"><rect fill="#E2E2F0" height="30.2969" rx="2.5" ry="2.5" style="stroke:#181818;stroke-width:0.5;" width="102.4434" x="290.2075" y="492.3203"/><text fill="#000000" font-family="sans-serif" font-size="14" lengthAdjust="spacing" textLength="88.4434" x="297.2075" y="512.3154">API Gateway</text></g><g class="participant participant-head" data-entity-uid="part3" data-qualified-name="ApiLanc" data-source-line="5" id="part3-head"><rect fill="#E2E2F0" height="30.2969" rx="2.5" ry="2.5" style="stroke:#181818;stroke-width:0.5;" width="134.5996" x="487.5117" y="87.2969"/><text fill="#000000" font-family="sans-serif" font-size="14" lengthAdjust="spacing" textLength="120.5996" x="494.5117" y="107.292">API Lancamentos</text></g><g class="participant participant-tail" data-entity-uid="part3" data-qualified-name="ApiLanc" data-source-line="5" id="part3-tail"><rect fill="#E2E2F0" height="30.2969" rx="2.5" ry="2.5" style="stroke:#181818;stroke-width:0.5;" width="134.5996" x="487.5117" y="492.3203"/><text fill="#000000" font-family="sans-serif" font-size="14" lengthAdjust="spacing" textLength="120.5996" x="494.5117" y="512.3154">API Lancamentos</text></g><g class="participant participant-head" data-entity-uid="part4" data-qualified-name="DB" data-source-line="6" id="part4-head"><text fill="#000000" font-family="sans-serif" font-size="14" lengthAdjust="spacing" textLength="141.4766" x="724.5879" y="115.292">Aurora / PostgreSQL</text><path d="M780.3262,66.2969 C780.3262,56.2969 798.3262,56.2969 798.3262,56.2969 C798.3262,56.2969 816.3262,56.2969 816.3262,66.2969 L816.3262,92.2969 C816.3262,102.2969 798.3262,102.2969 798.3262,102.2969 C798.3262,102.2969 780.3262,102.2969 780.3262,92.2969 L780.3262,66.2969" fill="#E2E2F0" style="stroke:#181818;stroke-width:0.5;"/><path d="M780.3262,66.2969 C780.3262,76.2969 798.3262,76.2969 798.3262,76.2969 C798.3262,76.2969 816.3262,76.2969 816.3262,66.2969" fill="none" style="stroke:#181818;stroke-width:0.5;"/></g><g class="participant participant-tail" data-entity-uid="part4" data-qualified-name="DB" data-source-line="6" id="part4-tail"><text fill="#000000" font-family="sans-serif" font-size="14" lengthAdjust="spacing" textLength="141.4766" x="724.5879" y="505.3154">Aurora / PostgreSQL</text><path d="M780.3262,518.6172 C780.3262,508.6172 798.3262,508.6172 798.3262,508.6172 C798.3262,508.6172 816.3262,508.6172 816.3262,518.6172 L816.3262,544.6172 C816.3262,554.6172 798.3262,554.6172 798.3262,554.6172 C798.3262,554.6172 780.3262,554.6172 780.3262,544.6172 L780.3262,518.6172" fill="#E2E2F0" style="stroke:#181818;stroke-width:0.5;"/><path d="M780.3262,518.6172 C780.3262,528.6172 798.3262,528.6172 798.3262,528.6172 C798.3262,528.6172 816.3262,528.6172 816.3262,518.6172" fill="none" style="stroke:#181818;stroke-width:0.5;"/></g><g class="message" data-entity-1="part1" data-entity-2="part2" data-source-line="8" id="msg1"><polygon fill="#181818" points="329.4292,160.8594,339.4292,164.8594,329.4292,168.8594,333.4292,164.8594" style="stroke:#181818;stroke-width:1;stroke-linejoin:miter;stroke-miterlimit:10;"/><line style="stroke:#181818;stroke-width:1;" x1="52.7446" x2="335.4292" y1="164.8594" y2="164.8594"/><text fill="#000000" font-family="sans-serif" font-size="13" lengthAdjust="spacing" textLength="264.6846" x="59.7446" y="144.6606">GET /api/lancamentos?de=&amp;ate=&amp;tipo=</text><text fill="#000000" font-family="sans-serif" font-size="13" lengthAdjust="spacing" textLength="72.3315" x="59.7446" y="159.7935">Bearer JWT</text></g><g class="message" data-entity-1="part2" data-entity-2="part2" data-source-line="9" id="msg2"><line style="stroke:#181818;stroke-width:1;" x1="341.4292" x2="383.4292" y1="209.125" y2="209.125"/><line style="stroke:#181818;stroke-width:1;" x1="383.4292" x2="383.4292" y1="209.125" y2="222.125"/><line style="stroke:#181818;stroke-width:1;" x1="342.4292" x2="383.4292" y1="222.125" y2="222.125"/><polygon fill="#181818" points="352.4292,218.125,342.4292,222.125,352.4292,226.125,348.4292,222.125" style="stroke:#181818;stroke-width:1;stroke-linejoin:miter;stroke-miterlimit:10;"/><text fill="#000000" font-family="sans-serif" font-size="13" lengthAdjust="spacing" textLength="69.0625" x="348.4292" y="188.9263">Valida JWT</text><text fill="#000000" font-family="sans-serif" font-size="13" lengthAdjust="spacing" textLength="117.5967" x="348.4292" y="204.0591">lancamentos:read</text></g><g class="message" data-entity-1="part2" data-entity-2="part3" data-source-line="10" id="msg3"><polygon fill="#181818" points="542.8115,247.2578,552.8115,251.2578,542.8115,255.2578,546.8115,251.2578" style="stroke:#181818;stroke-width:1;stroke-linejoin:miter;stroke-miterlimit:10;"/><line style="stroke:#181818;stroke-width:1;" x1="341.4292" x2="548.8115" y1="251.2578" y2="251.2578"/><text fill="#000000" font-family="sans-serif" font-size="13" lengthAdjust="spacing" textLength="72.2871" x="348.4292" y="246.1919">Encaminha</text></g><g class="message" data-entity-1="part3" data-entity-2="part3" data-source-line="12" id="msg4"><line style="stroke:#181818;stroke-width:1;" x1="554.8115" x2="596.8115" y1="280.3906" y2="280.3906"/><line style="stroke:#181818;stroke-width:1;" x1="596.8115" x2="596.8115" y1="280.3906" y2="293.3906"/><line style="stroke:#181818;stroke-width:1;" x1="555.8115" x2="596.8115" y1="293.3906" y2="293.3906"/><polygon fill="#181818" points="565.8115,289.3906,555.8115,293.3906,565.8115,297.3906,561.8115,293.3906" style="stroke:#181818;stroke-width:1;stroke-linejoin:miter;stroke-miterlimit:10;"/><text fill="#000000" font-family="sans-serif" font-size="13" lengthAdjust="spacing" textLength="178.1279" x="561.8115" y="275.3247">Extrai merchantId do token</text></g><g class="message" data-entity-1="part3" data-entity-2="part4" data-source-line="13" id="msg5"><polygon fill="#181818" points="786.3262,348.7891,796.3262,352.7891,786.3262,356.7891,790.3262,352.7891" style="stroke:#181818;stroke-width:1;stroke-linejoin:miter;stroke-miterlimit:10;"/><line style="stroke:#181818;stroke-width:1;" x1="554.8115" x2="792.3262" y1="352.7891" y2="352.7891"/><text fill="#000000" font-family="sans-serif" font-size="13" lengthAdjust="spacing" textLength="189.4521" x="561.8115" y="317.4575">SELECT * FROM lancamentos</text><text fill="#000000" font-family="sans-serif" font-size="13" lengthAdjust="spacing" textLength="219.5146" x="561.8115" y="332.5903">WHERE merchant_id = :merchant</text><text fill="#000000" font-family="sans-serif" font-size="13" lengthAdjust="spacing" textLength="156.2412" x="561.8115" y="347.7231">AND filtros + paginacao</text></g><g class="message" data-entity-1="part4" data-entity-2="part3" data-source-line="14" id="msg6"><polygon fill="#181818" points="565.8115,377.9219,555.8115,381.9219,565.8115,385.9219,561.8115,381.9219" style="stroke:#181818;stroke-width:1;stroke-linejoin:miter;stroke-miterlimit:10;"/><line style="stroke:#181818;stroke-width:1;stroke-dasharray:2,2;" x1="559.8115" x2="797.3262" y1="381.9219" y2="381.9219"/><text fill="#000000" font-family="sans-serif" font-size="13" lengthAdjust="spacing" textLength="136.3984" x="571.8115" y="376.856">Pagina de resultados</text></g><g class="message" data-entity-1="part3" data-entity-2="part2" data-source-line="15" id="msg7"><polygon fill="#181818" points="352.4292,407.0547,342.4292,411.0547,352.4292,415.0547,348.4292,411.0547" style="stroke:#181818;stroke-width:1;stroke-linejoin:miter;stroke-miterlimit:10;"/><line style="stroke:#181818;stroke-width:1;stroke-dasharray:2,2;" x1="346.4292" x2="553.8115" y1="411.0547" y2="411.0547"/><text fill="#000000" font-family="sans-serif" font-size="13" lengthAdjust="spacing" textLength="189.3823" x="358.4292" y="405.9888">200 OK { items, totalCount }</text></g><g class="message" data-entity-1="part2" data-entity-2="part1" data-source-line="16" id="msg8"><polygon fill="#181818" points="63.7446,436.1875,53.7446,440.1875,63.7446,444.1875,59.7446,440.1875" style="stroke:#181818;stroke-width:1;stroke-linejoin:miter;stroke-miterlimit:10;"/><line style="stroke:#181818;stroke-width:1;stroke-dasharray:2,2;" x1="57.7446" x2="340.4292" y1="440.1875" y2="440.1875"/><text fill="#000000" font-family="sans-serif" font-size="13" lengthAdjust="spacing" textLength="138.8613" x="69.7446" y="435.1216">Lista de lancamentos</text></g><path d="M411,453.1875 L411,478.1875 L697,478.1875 L697,463.1875 L687,453.1875 L411,453.1875" fill="#FEFFDD" style="stroke:#181818;stroke-width:0.5;"/><path d="M687,453.1875 L687,463.1875 L697,463.1875 L687,453.1875" fill="#FEFFDD" style="stroke:#181818;stroke-width:0.5;"/><text fill="#000000" font-family="sans-serif" font-size="13" lengthAdjust="spacing" textLength="265.5923" x="417" y="470.2544">Status POC: endpoint nao implementado</text><?plantuml-src PP9BRnf148JlyojAFbZE0u5yN8bO1jR42GaOIBWWHUsTjjtACZEQQVAGvV-UsIKs6-KutLzNrrQlYjQCvTNW73sClKlxMYcY9bVHZftwX3DEWIkvaugiVsKCLUfZPdSSAo6d34huaZYQG56baf2BEBbSN6DAoZ_fzqb3vFTqypyoEsuwO46Qah6aT4k9CxMFFXBwMFYazv5NDxEMd8oCQTQYz-uWNc1Qhj6d8FsE_mlBmzFiOtYg4lnmwqPCCKzzsAnDEzQP_qgrM6fQMzUHA2AJxS07YmNAXX3tGCRyhVtR_gMH14rE3_bxhosiX_hlxBhuP5HWLSxAyHglSRMSV-g6ltMRz-MoVD7u9XP35C_FhRlyFC6Tr1hpeTuWqBqugiYRoGYzhfT5su5bH6vlR7qwkZWcS3uOOFuHZn3bNNgRxIhLOx_FvtfwJY3JJUu5PfAqrUmuDiRv_4lu7pdYb-qh9TqdBERZ0kniy9Br77d8BjJS36O_vWy0?></g></svg>